<svg width="1628" height="833" viewBox="0 0 1628 833" fill="none" xmlns="http://www.w3.org/2000/svg">
<path d="M355.021 364.783C355.021 364.783 363.349 368.059 369.023 367.642C374.721 367.206 376.833 369.696 384.414 379.26C391.995 388.824 401.39 377.4 401.39 377.4C401.39 377.4 389.535 367.677 380.841 361.106C372.14 354.481 355.021 364.783 355.021 364.783ZM398.536 357.761C398.385 355.644 391.087 360.836 390.763 355.381C390.468 349.961 388.858 342.684 388.858 342.684L384.426 342.244C383.435 347.318 385.104 360.33 391.728 364.139C398.329 367.967 398.659 359.843 398.536 357.761ZM415.59 389.892C423.709 390.154 437.286 388.173 442.776 392.278C448.265 396.382 453.59 404.343 453.59 404.343C453.59 404.343 453.603 392.291 436.554 387.248C419.476 382.169 406.716 378.453 406.716 378.453C406.716 378.453 409.016 382.735 406.897 384.795C404.8 386.837 399.49 389.074 399.49 389.074L411.661 393.695C411.609 393.679 413.089 389.79 415.59 389.892ZM925.586 588.576C921.553 591.286 917.991 605.938 912.118 607.406C906.244 608.874 900.759 607.953 897.951 614.482C895.142 621.012 898.436 623.816 897.309 631.306C896.182 638.796 894.695 641.156 892.86 643.511C891.024 645.866 890.144 650.199 891.058 654.75C891.971 659.301 890.966 667.398 894.134 670.189C897.303 672.981 905.363 669.81 907.586 664.004C909.809 658.199 929.359 613.234 929.955 608.606C930.55 603.979 929.551 598.495 929.122 593.836C928.791 589.154 929.62 585.866 925.586 588.576ZM1239.79 492.414C1233.16 498.822 1226.83 500.433 1223.88 503.659C1220.93 506.884 1218.34 513.405 1216.16 513.04C1213.98 512.674 1209.73 507.712 1207.91 512.477C1204.97 520.001 1199.66 535.692 1204.56 542.176C1209.46 548.659 1223.92 553.03 1225.92 556.082C1227.96 559.169 1237.24 554.332 1238.47 547.755C1239.71 541.179 1239.99 537.876 1243.26 532.552C1246.54 527.228 1246.92 521.835 1249.17 521.91C1251.42 521.985 1252.95 520.829 1251.6 514.747C1250.26 508.666 1249.64 503.869 1252.47 501.512C1255.31 499.208 1257.36 497.438 1256.75 494.116C1256.13 490.795 1251.87 480.113 1250.2 480.682C1248.47 481.234 1246.37 485.991 1239.79 492.414ZM1478.55 761.572C1476.52 761.488 1472.41 755.946 1469.64 750.459C1466.87 744.972 1461.56 739.655 1461.49 741.78C1461.39 743.87 1466.55 754.571 1467.26 761.828C1467.97 769.085 1462.31 769.196 1462.29 770.69C1462.26 772.183 1466.65 774.73 1467.49 776.568C1468.33 778.406 1465.78 780.411 1462.82 780.633C1459.86 780.856 1457.25 777.125 1455.52 776.796C1453.76 776.433 1447.86 787.075 1440.36 794.972C1432.86 802.87 1425.76 800.572 1423.93 807.999C1423.34 810.378 1424.09 815.835 1430.57 816.34C1437.05 816.845 1443.47 808.612 1446.65 802.715C1449.8 796.784 1452.14 799.266 1455.29 797.885C1458.45 796.486 1458.45 787.457 1461.1 784.837C1463.75 782.216 1463.57 783.428 1467.84 783.533C1472.12 783.692 1474.77 776.521 1477.34 771.493C1479.9 766.466 1483.4 768.687 1484.95 763.034C1486.43 757.311 1480.58 761.656 1478.55 761.572ZM1339.6 775.767C1334.88 777.101 1335.12 771.12 1330.93 771.893C1328.37 772.37 1329.94 791.716 1337.47 791.354C1344.99 790.992 1349.02 770.044 1347.96 768.214C1346.9 766.385 1344.34 774.415 1339.6 775.767ZM719.738 193.449C718.394 194.922 716.548 193.626 717.353 197.264C718.303 201.49 727.06 197.267 730.472 197.081C733.884 196.896 738.331 194.314 738.697 191.943C739.063 189.573 739.644 185.666 740.434 184.772C741.253 183.913 741.238 179.381 739.356 178.41C737.473 177.44 730.396 176.31 728.852 177.773C727.257 179.219 726.18 181.887 724.219 181.513C722.236 181.158 716.618 182.472 718.056 186.409C719.507 190.454 721.087 192.03 719.738 193.449ZM714.67 116.573C715.582 112.095 715.222 106.965 705.704 108.753C696.162 110.561 692.492 112.555 687.463 111.49C682.434 110.425 674.918 104.762 668.604 110.905C663.934 115.384 675.948 124.975 685.209 126.47C694.418 127.949 713.758 121.051 714.67 116.573ZM513.545 192.577C510.066 190.104 504.12 198.301 501.16 202.714C498.251 207.143 496.563 212.209 494.767 213.645C492.972 215.081 504.157 217.275 507.793 217.081C511.428 216.887 512.8 215.449 515.192 218.828C517.636 222.223 522.405 220.258 522.729 218.159C523.052 216.06 520.666 210.846 520.923 207.563C521.203 204.261 515.743 204.381 512.906 202.494C510.091 200.589 516.211 194.489 513.545 192.577ZM401.144 120.978C399.836 120.651 398.577 120.106 397.605 121.564C396.634 123.023 395.665 122.413 395.731 124.011C395.802 125.663 398.99 126.313 401.131 125.062C403.272 123.81 406.148 121.828 406.014 121.114C405.885 120.453 402.43 121.324 401.144 120.978ZM413.995 124.619C412.604 125.482 411.71 126.758 412.077 127.751C412.444 128.744 412.099 128.145 412.605 129.259C413.175 130.496 417.011 128.01 417.444 125.583C417.884 123.21 415.386 123.756 413.995 124.619ZM410.031 159.791C408.917 159.834 408.348 161.961 408.401 163.038C408.483 164.15 410.655 162.105 412.428 162.163C414.225 162.201 419.105 161.384 419.589 162.102C420.072 162.821 422.61 159.881 420.465 159.424C418.269 158.952 414.807 161.657 414.251 160.114C413.723 158.606 413.079 157.371 412.102 157.949C411.126 158.526 411.844 159.757 410.031 159.791ZM218.109 60.4513C221.321 60.669 226.633 64.331 227.491 65.6829C228.348 67.0347 240.37 63.6928 240.937 62.3939C241.505 61.0949 244.398 60.5156 247.319 58.0826C250.241 55.6496 265.234 53.434 265.39 52.6546C265.495 51.8591 255.621 47.5099 253.346 47.6337C251.071 47.7575 244.586 47.8459 240.79 45.6363C236.994 43.4266 225.009 46.0297 223.361 45.9854C221.713 45.9411 222.672 48.566 221.659 51.357C220.646 54.148 216.796 53.5772 214.235 56.5359C211.545 59.6614 214.898 60.2335 218.109 60.4513ZM269.269 71.9121C265.625 70.9916 253.961 72.7368 253.417 73.6032C252.902 74.5044 254.981 75.6652 256.895 76.9044C258.786 78.1623 264.338 77.966 268.234 79.974C272.131 81.9819 276.806 82.5748 283.461 82.8755C290.117 83.1761 296.031 80.3758 300.596 78.9945C305.16 77.6132 315.369 82.2733 320.346 81.8473C325.294 81.3865 328.44 79.5923 328.371 78.5878C328.302 77.5832 331.311 72.9525 330.722 71.5543C330.104 70.1213 326.795 72.2275 326.258 72.7339C325.743 73.2214 318.609 71.1945 315.555 69.7836C312.552 68.3886 313.756 67.209 314.065 65.8301C314.345 64.4164 312.183 62.971 311.169 60.51C310.184 58.0839 312.804 56.6698 314.135 54.2622C315.474 51.9083 309.499 52.1029 306.953 52.0394C304.407 51.9758 303.423 52.9131 303.117 54.5257C302.811 56.1383 298.759 54.0824 297.242 54.9323C295.777 55.7983 298.857 63.5034 297.971 63.5916C297.057 63.6449 292.333 57.6039 289.977 56.202C287.62 54.8001 285.906 55.8736 286.411 57.4009C286.938 58.9094 283.652 59.1082 283.747 58.0253C283.843 56.9425 277.702 55.7406 274.504 55.6302C271.282 55.5388 271.919 55.2444 270.988 53.8954C270.056 52.5464 260.096 55.6468 256.732 56.0285C253.368 56.4102 251.719 58.6682 250.681 59.3558C249.591 60.0274 245.319 61.9909 246.086 63.4182C246.666 64.5289 248.025 62.9836 250.218 64.0501C252.387 65.1355 262.234 62.1293 261.985 64.2253C261.736 66.3214 249.24 66.9296 249.476 67.4422C249.711 67.9547 256.892 70.5913 264.154 69.9152C271.415 69.2392 275.354 70.9757 275.376 71.3706C275.405 71.8191 272.912 72.8327 269.269 71.9121ZM339.527 67.5272C342.029 66.8011 343.841 66.7671 346.34 66.221C348.816 65.6937 349.675 63.9159 349.537 61.493C349.376 59.0891 346.33 58.3793 346.09 56.9856C345.85 55.592 348.501 54.4464 347.773 53.3414C347.044 52.2364 345.311 53.1487 343.27 52.3101C341.201 51.4368 333.778 52.0111 331.891 52.0479C330.004 52.0848 327.258 53.8995 326.708 53.8847C326.159 53.87 332.487 56.8632 330.65 57.7435C328.785 58.589 324.058 56.5052 322.736 56.898C320.974 57.3617 320.664 59.1542 321.707 59.7615C322.727 60.3876 325.546 63.1746 326.897 63.2304C328.247 63.2862 331.991 64.005 333.969 65.7812C335.917 67.5226 337.025 68.2533 339.527 67.5272ZM364.901 47.1044C364.949 45.4118 363.486 43.1481 361.289 43.089C359.115 43.011 356.451 43.6355 353.597 42.6485C350.742 41.6615 354.416 43.6781 353.338 44.4571C352.261 45.2361 351.377 46.3854 351.377 46.3854C352.297 47.2133 358.789 48.6534 361.261 48.7198C363.732 48.7863 364.854 48.797 364.901 47.1044ZM332.303 42.733C333.467 44.3609 336.708 46.0883 338.631 46.14C340.582 46.2266 346.359 44.7805 347.026 43.6936C347.693 42.6066 350.043 40.1777 347.804 38.0878C345.565 35.9978 343.103 36.2188 340.26 35.753C337.417 35.2871 335.183 34.4921 332.755 35.2153C330.327 35.9386 327.516 38.0436 325.223 37.1788C322.953 36.2952 318.63 34.4656 317.253 34.6087C315.705 34.7763 315.632 35.8403 316.389 37.3939C317.117 38.9126 321.414 40.9411 323.339 41.6402C325.286 42.3205 331.14 41.1052 332.303 42.733ZM319.851 44.5448C320.057 43.1339 318.85 40.3027 314.408 43.7657C313.722 44.2778 319.645 45.9556 319.851 44.5448ZM289.289 35.94C290.596 36.681 294.684 36.5232 294.052 37.6987C293.42 38.8742 291.868 39.2219 292.905 39.7754C293.964 40.3101 295.663 40.3704 295.122 41.0568C294.582 41.7431 288.022 41.8345 286.393 40.4764C284.786 39.0996 284.584 38.0282 282.685 37.5439C280.815 37.0945 274.893 36.8915 274.462 35.775C274.03 34.6585 270.06 34.1282 266.556 35.2168C263.074 36.2865 256.408 40.7167 256.587 41.3932C256.796 42.1046 261.813 42.6484 263.586 43.5332C265.329 44.3832 270.73 43.5452 271.985 42.7953C273.24 42.0454 273.69 41.4345 274.238 42.2767C274.808 43.1 281.53 42.6966 281.525 43.2904C281.521 43.8841 270.576 44.5584 270.869 45.5543C271.161 46.5503 278.482 47.0051 282.16 46.5394C285.86 46.0548 294.369 43.514 297.324 44.2992C300.279 45.0845 310.072 45.6057 311.738 42.4478C312.71 40.5756 311.534 38.8404 308.723 38.6432C305.889 38.4648 303.903 40.1782 301.881 37.6122C299.859 35.0463 299.267 33.4144 297.998 32.9958C296.7 32.5423 293.577 35.3788 291.652 35.0934C289.756 34.8428 287.981 35.1991 289.289 35.94ZM238.187 36.7076C241.085 37.0094 240.4 38.9964 244.088 38.4044C247.776 37.8124 249.035 36.055 250.183 35.8668C251.33 35.6787 255.08 30.7855 256.119 33.4613C257.152 36.0834 259.379 35.7637 260.607 35.2126C261.836 34.6616 265.528 33.4758 266.065 32.9695C266.58 32.482 264.845 30.0308 266.558 29.7849C268.248 29.5577 266.695 27.3694 269.936 26.7946C273.201 26.2009 276.661 26.2112 277.729 27.4471C278.819 28.664 283.433 30.4284 286.049 29.608C288.664 28.7876 291.432 27.3677 293.371 26.9331C295.311 26.4985 298.441 24.7769 296.772 23.924C295.103 23.0712 292.392 24.9744 289.306 25.5972C286.19 26.1851 285.967 24.3052 282.968 24.2051C279.97 24.105 277.743 24.4248 274.194 25.1374C270.616 25.8151 265.272 27.9639 261.407 28.5268C257.57 29.1245 254.868 27.5381 249.32 29.8567C243.772 32.1753 234.274 33.2974 233.032 34.1547C231.437 35.1876 235.29 36.4058 238.187 36.7076ZM258.439 37.077C257.991 36.4468 250.477 37.5103 249.06 38.9859C248.636 39.398 254.446 40.7564 255.598 39.9745C256.778 39.2275 258.859 37.6723 258.439 37.077ZM313.483 32.2002C313.957 32.6315 320.883 33.947 321.288 33.3738C321.692 32.8006 313.187 27.1934 311.136 27.3086C309.53 27.4065 313.038 31.8037 313.483 32.2002ZM318.135 22.5418C320.279 23.826 315.895 23.5816 316.526 24.7083C317.18 25.8162 323.426 25.8089 324.34 25.7556C325.255 25.7023 326.165 28.1313 328.855 29.1966C331.545 30.2618 331.4 27.7853 333.553 27.0547C335.707 26.3241 340.286 29.8885 342.5 29.0475C344.715 28.2066 343.084 27.676 342.462 26.8367C341.817 26.0162 338.494 23.1768 337.251 22.5593C335.979 21.9069 331.999 21.503 329 21.4029C326.002 21.3028 323.318 18.8164 320.594 18.7237C317.922 18.647 314.544 17.4464 314.231 19.419C314.188 19.6904 315.992 21.2576 318.135 22.5418ZM346.988 25.5468C348.295 26.2878 352.013 27.2054 350.395 28.2571C348.801 29.2899 346.563 30.1497 348.373 30.2957C350.159 30.4606 352.549 29.415 354.279 30.5713C355.986 31.7465 359.02 31.5214 361.204 31.8868C363.388 32.2522 368.412 32.0222 369.128 31.1312C369.843 30.2403 363.1 30.2488 362.291 29.0929C361.459 27.9559 364.209 27.8498 363.103 26.7054C361.996 25.561 357.015 25.1058 355.51 24.1746C354.006 23.2434 348.381 23.0289 347.861 23.049C347.334 23.0153 347.547 23.133 347.547 23.133C346.19 23.0235 345.68 24.8059 346.988 25.5468ZM361.843 20.4948C364.515 20.5715 373.431 19.5798 373.323 20.5552C373.244 21.5655 365.255 22.1976 365.56 23.7147C365.864 25.2318 370.506 26.3836 371.107 26.4144C371.708 26.4451 377.124 27.4231 379.596 27.4896C382.068 27.5561 387.563 27.9375 388.914 27.9933C390.264 28.049 391.861 23.8865 392.498 23.5921C393.135 23.2977 393.094 26.5188 395.636 25.2876C398.155 24.0752 402.593 23.0945 402.593 23.0945C402.593 23.0945 402.056 25.0757 401.559 25.0769C401.032 25.0433 397.244 25.837 396.59 26.6177C395.936 27.3984 399.998 28.9143 401.801 29.0066C403.598 29.0452 405.676 28.3174 405.676 28.3174C405.676 28.3174 402.595 31.7099 404.918 31.7821C407.241 31.8543 411.616 31.8113 413.517 31.0544C415.418 30.2975 416.493 30.7596 415.905 31.25C415.316 31.7404 409.868 33.8573 406.817 34.1549C403.767 34.4525 401.575 31.0838 398.926 30.9882C396.305 30.9275 392.196 30.2767 391.791 30.8499C391.387 31.4231 398.341 34.662 395.133 34.6779C391.895 34.659 386.298 34.893 384.895 35.6487C383.491 36.4043 381.473 37.8492 383.87 37.9185C386.268 37.9879 397.873 38.4751 397.873 38.4751C397.873 38.4751 412.656 39.7391 416.107 39.8757C419.529 39.9774 421.603 39.8433 423.725 40.7327C425.869 41.6032 432.451 39.1908 433.876 39.2437C435.301 39.2966 439.027 38.6131 435.934 37.7074C432.84 36.8016 428.303 34.8543 430.744 34.2385C433.184 33.6227 439.043 30.9863 441.143 31.0671C443.243 31.1479 448.806 29.9979 450.305 28.1594C451.775 26.286 441.071 26.0518 443.838 25.0456C446.628 24.0206 452.773 22.3265 453.523 22.3515C454.272 22.3765 464.105 21.9789 468.272 20.8109C472.439 19.6428 472.854 18.9432 478.098 16.9961C483.342 15.049 499.346 12.7585 499.835 12.0561C500.301 11.3726 484.236 13.7735 486.377 12.5217C488.518 11.2699 495.359 10.4123 500.345 10.2738C505.331 10.1353 510.758 9.09838 512.475 8.25868C514.192 7.41898 516.673 7.77289 516.781 6.79745C516.86 5.78716 507.059 6.86699 506.047 5.05345C505.058 3.22105 500.247 3.15493 495.495 4.21969C490.744 5.28444 492.135 4.00771 488.957 3.23109C485.75 2.41961 475.726 1.20577 471.813 1.15897C467.9 1.11217 463.426 2.41804 460.591 1.59221C457.784 0.801237 446.945 0.266385 448.3 1.2033C449.656 2.14022 453.643 4.07273 451.82 4.23302C449.998 4.39331 447.746 2.19598 441.501 1.78956C435.256 1.38313 430.104 2.01362 426.277 2.8988C422.45 3.78398 422.616 5.18055 422.616 5.18055C422.616 5.18055 433.795 5.8462 432.313 6.78472C430.809 7.74209 427.162 7.41526 423.884 6.42665C420.577 5.40319 419.669 5.09647 416.265 4.09473C412.884 3.07414 409.066 2.35815 406.49 3.08713C403.913 3.81611 405.403 5.46729 400.265 5.79154C395.179 6.13178 392.525 4.74138 389.261 5.33504C385.997 5.9287 380.879 5.58667 379.507 7.0246C378.163 8.49737 385.481 8.71851 387.068 8.87311C388.631 9.04658 387.063 9.88049 388.51 10.3283C389.956 10.776 392.916 10.9675 396.137 11.059C399.358 11.1505 398.159 11.7364 399.689 12.4688C401.219 13.2011 401.279 14.3319 404.975 14.441C408.649 14.569 412.986 14.2037 414.612 13.4395C416.216 12.6941 415.858 14.2907 418.543 14.4748C421.227 14.659 424.112 14.8534 428.153 14.0859C432.193 13.3184 435.126 11.4065 436.901 11.0502C438.675 10.6939 434.42 12.5849 436.94 12.8473C439.437 13.1286 445.473 13.2374 445.835 13.3493C446.196 13.4613 451.549 14.3158 446.017 14.6733C440.455 14.9959 434.768 15.3054 434.768 15.3054C434.768 15.3054 431.329 15.6899 427.167 16.2643C423.004 16.8387 416.588 16.0431 418.345 17.0006C420.078 17.9769 421.307 19.3144 422.493 19.4485C423.678 19.5826 421.764 20.232 424.863 20.1304C427.962 20.0287 432.182 19.9378 429.57 20.9919C426.928 22.0112 423.589 22.6077 421.82 21.9566C420.05 21.3054 419.58 18.3918 416.591 18.1655C413.632 17.9739 409.474 17.9546 406.825 17.4453C404.205 16.9709 398.728 15.2757 401.015 17.5617C403.302 19.8476 408.193 20.7919 408.353 21.3073C408.514 21.8227 407.812 22.4074 411.592 22.8011C415.349 23.2136 419.716 24.358 420.065 24.3625C420.414 24.3671 423.176 26.6706 417.632 26.0932C412.088 25.5158 407.73 25.4862 406.506 25.0299C405.282 24.5735 404.693 23.1753 405.033 22.8924C405.372 22.6095 404.741 21.4828 403.979 21.3503C403.268 21.2338 400.173 20.7418 398.976 20.0865C397.778 19.4313 398.087 19.9409 398.161 18.4632C398.257 16.9666 397.215 17.8342 396.235 16.703C395.277 15.5529 397.987 15.9519 395.329 15.1552C392.671 14.3585 392.139 13.8574 391.782 14.6266C391.455 15.4307 393.203 17.1618 390.975 16.0067C388.748 14.8516 390.867 15.0936 388.348 14.4174C385.829 13.7412 387.795 14.5826 384.142 13.7884C380.512 12.9753 381.893 13.7133 378.687 10.5995C375.48 7.48579 374.067 8.36774 371.44 8.2533C368.813 8.13887 369.44 8.38447 369.44 8.38447C366.415 8.48324 367.499 9.23277 363.057 10.8072C358.615 12.3816 354.584 13.4365 355.625 15.2849C356.643 17.1522 359.148 20.4369 361.843 20.4948ZM410.219 48.5565C412.089 49.0059 410.14 51.0417 413.033 50.8761C415.918 50.6568 419.257 50.0602 421.431 50.1382C423.606 50.2161 426.87 49.6224 427.325 48.4178C427.808 47.248 425.717 45.566 425.042 45.5382C424.366 45.5103 419.284 43.3682 416.03 43.8356C412.804 44.3378 399.266 46.2275 397.209 45.4615C395.152 44.6956 391.775 43.0813 389.303 43.0148C386.831 42.9483 380.059 41.0334 380.27 40.5037C380.51 40.0088 381.661 39.6406 380.105 38.6934C378.497 37.7303 378.833 35.7388 374.819 36.3074C370.805 36.8761 367.231 37.3738 367.122 36.4607C367.014 35.5475 367.562 34.0875 365.188 33.9993C362.79 33.93 361.949 34.3941 359.963 34.219C357.953 34.0627 351.542 34.1483 351.064 34.3107C349.493 34.9109 354.627 36.6552 356.445 37.5024C358.263 38.3495 358.567 39.8666 359.652 40.6161C360.736 41.3657 361.143 39.5513 362.071 39.1918C362.947 38.8162 366.844 38.9355 367.806 39.0782C368.769 39.2209 371.523 40.4096 371.078 41.9017C370.633 43.3938 368.602 42.8427 370.075 44.9801C371.548 47.1176 371.129 48.4108 372.889 48.7745C374.65 49.1383 375.604 48.1661 377.003 48.4179C378.402 48.6697 377.186 49.3281 379.12 49.9009C381.055 50.4738 383.182 49.942 384.058 49.5664C384.934 49.1909 386.455 47.7472 386.586 48.6415C386.769 49.5517 383.595 50.07 387.314 50.1602C391.062 50.2853 400.258 50.1821 403.292 50.3708C406.325 50.5594 407.885 50.9129 408.517 50.1511C409.187 49.2978 408.32 48.0723 410.219 48.5565ZM382.923 34.3399C384.388 33.4739 386.798 33.6507 385.307 32.4132C383.839 31.1569 380.256 30.9535 377.891 31.1527C375.897 31.3376 374.66 32.6624 375.881 32.885C377.131 33.1425 378.221 32.8846 378.959 33.8633C379.755 34.9118 381.429 35.171 382.923 34.3399ZM679.653 85.9451C679.653 85.9451 671.937 84.0486 667.073 84.794C662.209 85.5393 657.001 87.1613 656.092 85.7935C655.183 84.4256 659.759 83.9792 660.832 83.3802C661.935 82.816 667.431 80.8951 664.963 80.6487C662.524 80.437 655.899 80.8186 658.095 79.8166C660.268 78.8334 667.222 78.2952 664.973 78.2201C662.725 78.145 652.54 76.0021 657.62 76.0218C662.699 76.0416 669.122 78.3657 671.396 80.5441C673.671 82.7226 675.255 84.1184 678.402 84.2128C681.549 84.3071 682.756 85.2498 683.218 82.8577C683.681 80.4657 685.104 79.4574 682.98 78.3343C680.908 77.2272 678.034 76.0792 675.993 75.2406C673.981 74.437 669.746 71.8845 669.699 71.2748C669.674 70.6462 657.981 70.4681 663.318 68.6792C668.656 66.8904 672.953 67.0303 674.371 69.3318C675.841 71.6493 679.107 74.0053 681.861 72.8917C684.616 71.7781 684.792 70.7461 682.5 69.4676C680.208 68.1892 674.259 68.5987 672.725 66.1578C671.191 63.7169 673.289 63.1503 673.289 63.1503L684.781 65.6204C684.781 65.6204 689.451 65.3323 689.645 64.8751C689.817 64.4368 688.549 63.1907 690.051 61.5859C691.553 59.9811 689.494 58.5677 688.593 56.4262C687.669 54.3035 692.056 56.6702 693.402 57.3196C694.771 57.9503 698.49 60.3428 698.043 56.5829C697.597 52.823 696.365 51.2518 695.758 49.2788C695.151 47.3058 694.823 45.8075 696.397 45.8547C697.97 45.9019 703.069 54.0507 703.327 52.2421C703.585 50.4335 703.736 47.2981 703.879 46.4112C704.023 45.5243 703.222 45.4833 700.775 43.7432C698.329 42.003 702.115 42.4503 702.517 39.7549C702.919 37.0594 701.486 34.0031 703.14 31.7989C704.818 29.5758 706.808 29.9846 708.971 29.1276C711.111 28.2896 714.272 25.3617 717.62 25.0526C720.939 24.7086 721.758 23.8497 728.753 22.3925C735.725 20.9543 744.418 21.8597 737.977 20.4356C731.537 19.0115 722.678 18.5981 719.205 18.4804C715.731 18.3626 708.751 16.7975 706.233 17.5962C703.744 18.4297 704.189 20.7148 700.554 18.6068C696.926 16.5526 701.254 15.4861 695.629 15.2716C690.01 15.1108 679.393 21.0604 679.921 18.378C680.449 15.6957 691.2 14.6512 694.394 13.8804C697.558 13.0747 704.53 11.6365 701.183 11.5318C697.813 11.4461 692.723 10.0778 688.226 9.9277C683.728 9.77756 675.261 10.572 675.38 9.0566C675.499 7.54116 678.099 5.96589 674.506 5.88875C670.907 5.7579 666.011 2.45763 661.405 5.17149C656.822 7.86649 647.191 3.66971 642.819 3.53269C638.448 3.39568 611.779 4.94681 605.285 4.74786C598.791 4.5489 591.523 4.75749 587.119 4.76563C582.715 4.77376 572.754 6.39932 577.849 7.17393C582.943 7.94854 591.873 8.53907 589.728 9.97084C587.584 11.4026 579.926 11.4644 580.174 12.0844C580.421 12.7043 589.561 13.5926 586.47 14.3954C583.432 15.2142 577.246 16.3523 574.854 12.9732C572.41 9.57822 571.587 6.84012 569.242 6.78678C566.867 6.69859 558.404 6.89936 559.407 8.42548C560.409 9.95159 563.229 12.3248 561.329 12.2542C559.43 12.1837 557.572 11.8417 555.862 10.4329C554.152 9.02399 551.012 6.68113 550.054 7.83328C549.073 9.00429 552.4 11.6637 548.499 12.138C544.598 12.6123 544.264 13.3627 544.123 12.5947C544.034 11.8427 546.791 9.07433 542.197 8.94592C537.602 8.81751 522.127 8.01199 523.776 9.11743C525.425 10.2229 526.564 11.6358 524.761 11.5435C522.958 11.4513 522.631 9.95304 519.135 9.85417C515.662 9.73645 515.64 11.2301 514.106 12.5664C512.543 13.8678 516.819 15.5014 512.429 14.7895C508.01 14.0428 510.845 13.3938 506.175 13.682C501.506 13.9701 499.447 16.3339 497.246 16.8685C495.022 17.422 483.52 18.8553 486.779 19.6827C490.015 20.5291 490.536 20.0953 494.833 20.2352C499.107 20.3939 509.026 19.0398 507.696 20.2062C506.389 21.3539 504.208 23.1107 501.446 22.6958C498.662 22.2996 498.555 22.4477 498.555 22.4477C494.693 24.7192 489.108 25.8881 483.615 25.7404C478.093 25.5578 471.337 27.7612 469.437 27.6906C467.537 27.6201 461.854 27.7496 461.851 29.4044C461.826 31.0781 464.761 34.0045 468.896 34.4564C473.002 34.8734 487.712 33.8379 487.3 35.1848C486.887 36.5318 471.803 36.9342 471.092 37.2314C470.381 37.5287 467.126 37.9961 470.913 39.9183C474.7 41.8405 481.417 40.556 480.943 41.5995C480.47 42.643 477.599 43.6172 480.774 44.1601C483.95 44.7031 488.297 43.7978 494.148 43.8237C500 43.8496 504.814 44.1494 509.592 44.7744C514.34 45.3644 517.991 45.925 520.06 47.2121C522.129 48.4992 525.456 51.1586 525.966 53.5671C526.504 56.0104 532.626 64.6054 532.537 67.6305C532.419 70.6208 530.677 73.1343 535.649 73.302C540.57 73.4538 545.032 71.6268 546.825 71.8454C548.618 72.064 552.325 73.5216 552.128 75.6336C551.93 77.7456 553.727 81.5613 551.18 80.4366C548.632 79.3119 541.488 77.4113 539.454 78.1014C537.421 78.7914 535.891 79.9476 535.403 81.7111C534.893 83.4935 534.958 86.9803 538.662 86.3157C542.373 85.7048 542.997 83.0008 547.042 83.1144C551.088 83.228 552.312 83.2707 552.636 84.9489C552.959 86.6272 556.939 87.0311 552.054 88.8564C547.14 90.6469 545.176 90.4529 542.801 90.3647C540.426 90.2765 538.142 92.0015 538.028 92.9232C537.884 93.8101 537.604 97.1124 537.202 99.8079C536.801 102.503 534.825 105.152 535.795 106.823C536.765 108.494 539.322 109.493 540.132 112.537C540.912 115.547 541.228 114.221 541.091 116.637C540.955 119.052 539.921 119.146 542.083 120.591C544.246 122.037 545.363 118.45 545.881 123.862C546.428 129.309 551.359 130.809 552.064 132.347C552.718 133.869 551.063 136.073 555.366 136.68C559.692 137.269 564.397 136.655 566.7 139.282C569.003 141.909 572.373 145.772 575.221 144.817C578.069 143.862 578.177 140.998 580.756 136.725C583.335 132.453 583.064 128.075 586.754 126.241C590.421 124.427 591.844 127.61 593.457 121.486C595.069 115.362 589.921 115.813 596.548 113.777C603.175 111.74 597.148 112.746 604.408 111.009C611.668 109.272 616.636 110.033 617.802 108.118C618.991 106.183 628.369 99.4361 634.116 97.9552C639.864 96.4743 641.933 97.7614 646.74 96.5326C651.553 95.3575 661.506 92.2034 663.722 92.4236C665.939 92.6438 672.997 89.4216 675.674 88.9046C678.069 88.3265 679.653 85.9451 679.653 85.9451ZM1285.04 385.502C1285.95 381.024 1287.19 378.638 1286.91 377.749C1286.6 376.826 1285.37 375.902 1285.37 375.902C1282 375.816 1282.23 378.811 1280.7 379.967C1279.17 381.124 1275.92 383.12 1277.33 387.382C1278.73 391.645 1280.02 394.994 1280.29 396.189C1280.53 397.403 1284.16 390.014 1285.04 385.502ZM1268.88 431.361C1270.49 435.634 1270.32 442.853 1273.22 442.921C1276.14 443.024 1280.47 439.835 1280.23 444.341C1279.99 448.846 1285 447.214 1283.64 451.656C1282.3 456.132 1283.26 457.048 1281.26 457C1279.23 456.916 1280.5 456.093 1278.11 456.905C1275.72 457.717 1274.44 458.899 1275.63 461.336C1276.84 463.807 1278.82 464.162 1277.56 466.513C1276.3 468.864 1274.64 473.964 1276.8 473.108C1278.94 472.269 1281.71 464.536 1284.59 463.436C1287.47 462.336 1290.25 463.325 1290.03 466.337C1289.82 469.349 1290.7 472.391 1288.5 473.519C1286.29 474.648 1286.69 477.978 1283.34 477.873C1279.97 477.788 1280.69 474.468 1278.31 476.808C1275.92 479.149 1274.31 477.898 1273.57 481.164C1273.29 482.344 1272.89 483.745 1272.32 485.044C1274.08 483.752 1275.97 482.654 1277.24 482.479C1280.69 481.969 1282.36 479.925 1282.16 482.631C1281.98 485.318 1281.13 488.031 1281.7 488.62C1282.3 489.245 1284.53 490.814 1285.24 492.045C1285.96 493.276 1285.47 484.536 1287.86 482.195C1290.24 479.855 1290.73 487.121 1291.13 484.425C1291.54 481.73 1292.81 476.356 1293.05 471.851C1293.29 467.345 1288.2 460.545 1289.1 459.089C1290.02 457.615 1292.52 455.881 1291.81 453.175C1291.11 450.45 1288.97 455.479 1286.95 449.423C1284.94 443.314 1284.26 441.811 1282.74 438.47C1281.23 435.129 1279.97 431.455 1281.39 429.385C1282.81 427.316 1287.15 419.63 1284.64 418.36C1282.12 417.09 1280.17 416.41 1280.17 416.41C1277.32 416.017 1276.73 410.895 1275.86 416.577C1275 422.258 1275.85 428.628 1273.52 429.15C1271.19 429.617 1267.28 427.088 1268.88 431.361ZM1268.19 489.717C1269.82 489.367 1271.27 487.332 1272.27 485.028C1269.19 487.233 1266.56 490.014 1268.19 489.717ZM1256.98 466.768C1254.56 469.38 1250.76 473.483 1252.01 475.629C1253.98 479.006 1261.64 465.725 1263.21 465.772C1264.79 465.819 1265.5 464.047 1265.47 461.35C1265.42 458.618 1269.19 454.533 1267.87 452.984C1266.54 451.434 1266.27 454.43 1263.06 459.465C1259.82 464.464 1259.41 464.156 1256.98 466.768ZM1248.43 556.166C1247.17 558.517 1251.69 562.893 1253.78 561.158C1255.86 559.423 1253.91 558.743 1254.68 553.677C1255.47 548.592 1254.19 544.936 1256.68 543.509C1259.16 542.101 1259.66 547.819 1259.5 551.728C1259.37 555.618 1259.76 558.948 1261.33 558.996C1262.91 559.043 1264.88 563.949 1265.69 560.033C1266.52 556.152 1266.74 553.14 1267.33 550.761C1267.91 548.382 1267.32 547.757 1265.82 544.397C1264.31 541.057 1261.38 539.425 1262.68 538.277C1263.99 537.13 1267.01 533.614 1268.25 534.231C1269.52 534.884 1268.12 539.65 1270.27 540.341C1272.44 541.012 1277.68 539.065 1279.38 539.719C1281.07 540.373 1281.26 542.165 1280.84 544.879C1280.44 547.574 1279.11 551.744 1283.37 550.681C1287.6 549.636 1288.57 547.53 1291.49 547.633C1294.42 547.736 1300.73 550.622 1300.73 550.622C1300.73 550.622 1300.41 543.692 1293.47 544.985C1286.5 546.243 1282.38 548.255 1282.68 546.121C1283 544.022 1286.49 537.52 1281.97 537.389C1277.47 537.239 1271.29 540.967 1270.86 536.127C1270.47 531.322 1272.49 529.877 1266.79 531.788C1261.09 533.698 1259.28 535.153 1258.84 538.174C1258.37 541.16 1255.78 540.486 1256.17 538.097C1256.53 535.727 1256.9 527.277 1256.9 527.277C1258.9 523.135 1264.8 525.713 1267.95 525.807C1271.09 525.902 1277.88 524.327 1278.91 521.931C1279.95 519.535 1280.82 515.382 1280.82 515.382C1280.82 515.382 1276.55 522.777 1272.19 520.212C1267.83 517.646 1264.94 517.272 1262.7 517.197C1260.45 517.122 1257.08 518.511 1255.94 522.997C1254.81 527.484 1258.18 529.098 1253.64 533.77C1249.09 538.442 1248.38 540.214 1248.2 541.427C1248.02 542.639 1249.92 543.59 1249.54 547.508C1249.13 551.391 1249.7 553.815 1248.43 556.166ZM1251.17 585.756C1250.47 583.031 1246.61 581.705 1246.61 581.705L1242.98 584.903C1244.33 584.959 1246.83 587.722 1248.43 587.804C1249.95 587.836 1251.9 588.516 1251.17 585.756ZM1280.83 579.179C1280.72 578.266 1275.35 576.603 1272.29 578.916C1269.22 581.228 1266.3 581.125 1265.63 582.626C1264.96 584.126 1263.03 587.978 1263.03 587.978C1268.91 584.855 1268.56 584.257 1271.18 583.437C1273.79 582.563 1280.94 580.092 1280.83 579.179ZM1315.05 572.462C1318.74 568.974 1320.14 573.237 1320.14 573.237C1320.14 573.237 1320.56 566.044 1319.24 564.189C1317.93 562.333 1318.94 555.765 1316.88 559.01C1314.83 562.254 1314.63 564.96 1312.47 567.292C1310.3 569.624 1307.69 570.444 1308.96 571.096C1310.2 571.714 1315.05 572.462 1315.05 572.462ZM1388.88 593.192C1384.33 588.835 1387 583.193 1384.59 582.836C1382.16 582.444 1376.87 583.188 1374.26 577.983C1371.65 572.777 1374.71 570.465 1373.11 566.192C1371.51 561.919 1364.99 554.185 1361.98 551.675C1358.97 549.165 1340.48 541.659 1336.65 538.534C1332.85 535.389 1328.61 540.984 1326.41 543.641C1324.21 546.298 1320.25 548.538 1319.26 546.112C1318.28 543.685 1318.5 534.648 1314.4 531.802C1310.31 528.957 1297.43 533.303 1299.99 537.664C1302.3 541.64 1304.47 539.308 1307.67 545.138C1310.88 550.968 1310.49 553.357 1315.96 552.93C1321.44 552.503 1327.01 559.014 1328.49 564.155C1329.95 569.315 1324.01 568.537 1323.65 572.436C1323.3 576.335 1323.67 581.159 1328.17 581.309C1332.66 581.459 1335 583.941 1339.42 588.878C1343.87 593.851 1340.61 603.347 1339.13 613.261C1337.61 623.14 1335.52 628.185 1325.23 624.535C1314.94 620.886 1320.58 607.52 1320.88 599.414C1321.21 591.29 1317.08 596.27 1310.52 596.361C1303.96 596.452 1301.81 594.287 1296.56 594.706C1291.31 595.124 1291.31 595.124 1290.74 598.726C1290.19 602.308 1287.36 606.14 1283.22 611.12C1279.09 616.1 1279.14 611.278 1273.62 610.502C1268.1 609.726 1267.56 611.833 1260.17 618.809C1252.79 625.785 1247.78 623.227 1247.13 627.424C1246.49 631.622 1245.78 636.398 1242.1 641.414C1238.41 646.431 1225.7 646.921 1222.04 647.081C1218.4 647.275 1216.41 651.417 1211.55 655.166C1206.7 658.915 1206.59 667.031 1203.08 676.861C1199.56 686.691 1203.64 692.505 1205.67 701.618C1207.69 710.731 1206.9 715.815 1204.91 722.961C1202.93 730.106 1202.87 731.925 1210.15 736.068C1217.44 740.212 1230.1 729.489 1235.28 731.142C1240.43 732.813 1248.86 727.973 1261.43 722.344C1274.01 716.714 1278.2 717.47 1286.77 723.434C1295.35 729.452 1296.12 733.361 1298.53 735.247C1300.94 737.132 1298.97 739.78 1300.33 742.84C1301.68 745.899 1307.66 740.686 1309.61 747.032C1311.59 753.413 1314.09 757.705 1319.65 761.213C1325.22 764.721 1329.14 761.225 1334.94 761.702C1340.75 762.179 1342.54 760.743 1349.24 758.236C1355.94 755.729 1356.61 755.757 1358.87 748.332C1361.14 740.888 1370.29 729.437 1376.07 718.188C1381.85 706.939 1382.91 690.711 1383.12 681.979C1383.27 675.247 1378.86 664.751 1373.95 657.332C1375.1 658.439 1376.69 658.827 1377.43 659.86C1378.56 661.399 1379.55 662.35 1381.47 664.524C1383.4 666.698 1383.75 662.799 1384.26 659.488C1384.76 656.178 1381.88 655.803 1379.7 655.438C1377.51 655.072 1374.66 651.369 1373.33 649.82C1372.29 648.619 1367.92 644.939 1364.14 643.304C1360.43 635.713 1357.81 626.21 1358.19 621.644C1358.75 615.04 1355.66 615.842 1353.45 611.251C1351.21 606.679 1354.67 600.143 1354.54 596.532C1354.41 592.922 1354.02 583.566 1359.32 578.326C1364.62 573.085 1366.05 583.048 1368.52 587.665C1371 592.264 1374.08 592.648 1382.2 595.626C1390.32 598.604 1397.83 602.739 1398.73 601.284C1399.6 599.847 1393.43 597.549 1388.88 593.192ZM1370.91 649.176C1374.41 651.397 1372.35 651.638 1372.75 654.969C1372.8 655.398 1372.89 655.79 1373.06 656.126C1371.92 654.479 1370.75 653.031 1369.61 651.852C1368.05 650.204 1366.51 647.943 1365.11 645.335C1367.08 646.644 1369.3 648.159 1370.91 649.176ZM1396.06 559.119C1397.33 558.242 1399.3 554.119 1396.42 555.22C1393.54 556.32 1391.61 560.172 1390.57 562.568C1389.54 564.964 1388.03 566.102 1386.13 565.15C1384.24 564.179 1382.14 563.217 1382.14 563.217L1378.73 563.403C1378.58 564.29 1379.65 567.648 1382.72 568.339C1385.77 569.049 1389.22 568.538 1391.57 566.523C1393.91 564.508 1394.6 565.704 1394.99 563.315C1395.35 560.891 1394.82 559.976 1396.06 559.119ZM1429.55 586.946C1430.01 582.431 1432.94 588.254 1433.61 588.588C1434.22 588.906 1435.5 585.061 1432.45 582.823C1429.4 580.638 1430.02 583.96 1424.6 579.565C1419.17 575.17 1420.12 577.921 1416.1 574.479C1412.09 571.037 1410.33 569.486 1409.57 567.051C1408.81 564.616 1406.53 564.866 1406.53 564.866C1406.69 566.676 1405.89 572.067 1409.64 572.48C1413.4 572.892 1413.02 574.094 1415.84 576.287C1418.67 578.481 1422 578.892 1423.4 580.151C1424.79 581.41 1428.48 583.948 1428.19 585.721C1427.93 587.53 1425.76 588.333 1426.29 589.248C1426.82 590.163 1429.67 590.862 1431.3 591.807C1432.98 592.767 1432.87 597.879 1434.36 598.523C1435.86 599.167 1435.14 596.461 1432.98 592.767C1430.8 589.092 1429.09 591.46 1429.55 586.946ZM1446.43 670.866C1447.78 670.922 1449.2 668.852 1448.22 667.901C1447.24 666.95 1444.18 661.762 1442.6 660.186C1441.02 658.61 1437.15 657.285 1436.64 654.876C1436.11 652.433 1433.54 646.956 1433.54 646.956C1433.4 650.846 1435.01 656.648 1436.57 658.189C1438.15 659.764 1441.64 661.986 1442.79 664.693C1444.01 667.452 1445.08 670.81 1446.43 670.866ZM1298.2 513.542C1297.89 512.619 1295.64 512.544 1295.64 512.544C1293.5 513.382 1292.89 515.779 1291.86 519.65C1290.82 523.521 1289.69 528.008 1290.59 529.556C1291.5 531.104 1292.52 533.204 1292.52 533.204C1292.52 533.204 1291.84 524.148 1293.42 524.195C1294.99 524.242 1296.96 527.619 1296.87 525.213C1296.78 522.806 1296 521.865 1296 521.865C1296 521.865 1297.26 519.514 1296.83 517.983C1296.38 516.472 1294.95 517.013 1294.95 517.013C1294.95 517.013 1298.53 514.447 1298.2 513.542ZM1277.8 573.972C1277.8 573.972 1267.2 576.953 1265.66 576.581C1264.15 576.244 1262.86 577.085 1261.49 575.861C1260.1 574.601 1262.19 578.586 1257.08 578.117C1251.98 577.649 1252.69 575.877 1251.11 575.83C1249.54 575.783 1247.6 578.106 1247.6 578.106C1250.16 579.104 1255.53 580.767 1259.64 579.116C1263.72 577.43 1268.44 577.571 1269.86 577.336C1271.22 577.086 1277.8 573.972 1277.8 573.972ZM1275.3 450.215C1275.67 447.844 1272.33 445.905 1271.23 445.875C1271.23 445.875 1271.24 448.879 1272.14 450.427C1273.05 451.975 1273.21 453.785 1273.21 453.785C1273.21 453.785 1274.91 452.604 1275.3 450.215ZM999.494 106.441C1002.23 106.228 1006.4 102.757 1006.4 102.757C1006.4 102.757 1004.13 99.9851 1002.08 99.9203C1000.05 99.8366 994.967 100.591 994.967 100.591C995.542 102.709 996.756 106.655 999.494 106.441ZM796.116 264.532C793.077 265.351 795.627 264.821 793.077 265.351C790.527 265.881 791.273 263.784 790.527 265.881C789.751 267.943 791.267 269.809 790.865 272.505C790.463 275.2 788.688 277.859 790.262 277.906C791.835 277.953 794.349 277.748 795.492 276.265C796.613 274.801 797.158 271.219 797.403 269.716C797.625 268.233 797.848 268.224 797.863 265.202C797.855 262.199 796.936 260.957 796.936 260.957C797.446 259.175 800.995 256.574 798.336 256.191C795.677 255.808 794.37 256.955 794.256 257.877C794.112 258.764 795.248 261.832 795.248 261.832L796.556 262.159C796.504 262.143 799.206 263.729 796.116 264.532ZM868.518 300.857C868.287 299.338 863.071 297.956 862.137 298.262C861.196 298.514 855.176 301.049 855.176 301.049C856.75 301.096 860.614 300.947 862.906 302.225C865.192 303.45 868.748 302.377 868.518 300.857ZM901.667 304.002C901.667 304.002 904.54 301.374 903.865 301.346C903.19 301.318 899.965 301.82 898.614 301.764C897.264 301.708 895.144 303.769 895.144 303.769L893.535 305.521C895.152 306.772 897.81 307.155 898.751 306.903C899.692 306.651 901.667 304.002 901.667 304.002ZM837.873 40.771C843.204 41.2307 845.928 41.3233 846.279 43.4501C846.631 45.5769 854.247 41.5958 855.755 41.9332C857.264 42.2707 850.82 44.8037 850.82 44.8037C850.82 44.8037 846.186 47.069 852.832 49.3845C859.478 51.7 859.895 53.5365 860.994 53.566C862.092 53.5955 862.926 49.7143 865.131 48.5859C867.337 47.4576 872.423 45.2288 874.441 43.7839C876.46 42.3391 877.567 41.1811 879.902 43.663C882.238 46.1449 878.897 51.7597 881.103 52.1062C883.287 52.4715 882.045 53.3289 887.052 51.6967C892.06 50.0645 896.485 48.9763 897.383 47.5208C898.303 46.0464 894.164 41.9973 891.957 41.6508C889.774 41.2855 886.174 39.6798 886.288 38.758C886.432 37.8712 887.596 37.6104 889.091 38.2542C890.585 38.8979 895.815 39.9731 899.58 39.1982C903.294 38.4073 908.525 36.7665 909.609 35.6275C910.687 34.4348 915.407 33.1014 909.968 31.7286C904.529 30.3557 898.379 30.755 895.009 30.6693C891.639 30.5835 883.277 30.5826 882.644 30.2833C882.034 29.9651 872.528 29.9723 871.709 30.8312C870.891 31.6902 871.696 35.3284 867.874 35.2061C864.051 35.0839 863.009 35.9515 859.331 34.9424C855.652 33.9333 852.577 31.7138 851.068 31.3763C849.56 31.0388 837.849 33.6493 837.849 33.6493C836.651 35.2963 832.514 40.2764 837.873 40.771ZM1184.6 63.0169C1189.54 61.675 1191.42 61.117 1193.06 60.8738C1194.7 60.6307 1198.08 58.9354 1198.08 58.9354C1198.08 58.9354 1193.76 57.5732 1192.04 56.9381C1190.35 56.284 1188.24 55.3221 1186.79 55.8818C1185.34 56.4414 1185.83 59.1562 1184.53 60.3038C1183.22 61.4514 1178.87 61.943 1180.38 62.2805C1181.96 62.6151 1184.6 63.0169 1184.6 63.0169ZM1197.15 45.6613C1200.79 46.9956 1203 47.3421 1204.36 47.0916C1205.75 46.8222 1211.61 44.0058 1211.7 44.9378C1211.81 45.8509 1208.69 49.9823 1212.85 50.7027C1217.02 51.4232 1217.65 50.2477 1223.01 50.7423C1228.34 51.202 1232.32 51.9659 1233.03 51.6686C1233.74 51.3714 1236.58 50.5961 1236.66 51.4744C1236.77 52.3875 1235.08 55.9243 1235.08 55.9243C1235.08 55.9243 1239.31 56.3545 1244.49 56.2262C1249.7 56.0791 1251.28 56.1263 1254.2 56.2293C1257.12 56.3323 1261.39 54.9624 1261.54 54.0755C1261.68 53.1886 1260.47 52.246 1254.29 51.1355C1248.14 50.06 1247.91 48.54 1244.91 49.0336C1241.91 49.5272 1239.56 50.0676 1239.56 50.0676L1239.73 45.8522C1239.73 45.8522 1235.45 44.2187 1231.33 44.7016C1227.21 45.1846 1225.42 40.5951 1228.76 40.6997C1232.13 40.7855 1237.46 39.7703 1231.15 38.3593C1224.81 36.9672 1223.89 35.7257 1220.34 35.3234C1216.78 34.9211 1214.95 38.1574 1212.89 38.3988C1210.83 38.6403 1205.7 39.6657 1205.7 39.6657C1202.6 41.0085 1193.51 44.3271 1197.15 45.6613ZM1622.31 131.555C1612.76 127.643 1578.14 114.806 1566.11 113.49C1554.11 112.208 1554.71 107.221 1549.02 107.063C1543.35 106.886 1536.19 114.267 1534.96 110.627C1533.7 106.953 1549.59 103.462 1546.97 98.9763C1544.34 94.491 1526.97 95.9172 1517.19 92.7874C1507.41 89.6575 1497.24 85.3198 1489.28 88.2891C1481.32 91.2583 1484.18 84.0974 1483.42 81.3027C1482.64 78.4731 1445.62 72.4738 1437.29 73.8026C1428.96 75.1313 1435.01 64.8974 1428.84 65.9092C1422.66 66.921 1385.53 67.743 1389.53 71.0778C1393.54 74.4125 1400.06 83.0279 1395.86 82.92C1391.69 82.7933 1385.7 72.5567 1379.8 73.5759C1373.92 74.5762 1375.79 76.2668 1373.02 78.5678C1370.26 80.8688 1350.68 85.0782 1339.83 81.1262C1328.98 77.1743 1325.75 78.6839 1323.38 78.5957C1320.98 78.5264 1313.33 69.4328 1307.86 73.6908C1302.42 77.93 1294.42 82.8792 1294.63 77.6912C1294.8 72.4683 1304.24 69.9817 1296.06 66.1064C1287.94 62.2472 1279.67 67.1891 1268.39 64.0092C1257.94 61.0852 1247.12 58.8229 1231.02 64.1386C1230.47 63.8364 1229.94 63.6228 1229.64 63.5806C1227.65 63.2255 1225.71 62.5451 1224.31 63.1208C1222.86 63.6805 1220.76 65.722 1219.63 65.6576C1218.51 65.6469 1215.24 66.4206 1212.32 66.3176C1209.39 66.2147 1207.03 67.0613 1203.21 66.9391C1199.39 66.8168 1201.91 62.061 1198.77 63.4953C1195.6 64.8946 1198.77 63.4952 1199.16 65.2969C1199.57 67.1334 1194.38 68.449 1191.76 69.2694C1189.15 70.0898 1187.6 68.549 1184.97 67.8408C1182.38 67.1675 1182.42 65.3675 1179.35 66.1514C1176.31 66.9702 1177.67 68.1946 1179.59 70.6748C1181.47 73.1202 1177.5 72.41 1174.58 72.3071C1171.65 72.2041 1169.69 70.3553 1167.41 72.0802C1165.13 73.8051 1162.82 75.5489 1161.04 75.4915C1159.25 75.4529 1155.75 74.7066 1152.88 77.3356C1150.56 79.4394 1154.5 78.6399 1149.61 81.4727C1146.4 81.4349 1143.87 81.1188 1142.27 80.4431C1141.67 80.1786 1141.09 79.8952 1140.48 79.6308L1140.71 78.7947C1140.71 78.7947 1145.48 75.6425 1146.54 74.4687C1147.62 73.2759 1143.38 72.8458 1142.14 72.2283C1140.87 71.5759 1139.48 71.8453 1138.59 73.3008C1137.92 74.3878 1135.81 75.2607 1132.86 75.5903C1123.66 70.6215 1112.9 65.4793 1100.37 70.6572C1083.34 77.7536 1093.58 83.6897 1087.1 88.6701C1080.6 93.6694 1073.43 93.4426 1074.39 97.075C1075.34 100.707 1076.83 102.772 1068.87 101.731C1060.9 100.689 1050.92 99.1501 1047.01 97.0348C1043.12 94.9005 1024.67 87.483 1044.04 76.8965C1063.39 66.2752 1096.23 64.126 1096.85 60.127C1097.45 56.147 1086.06 59.7882 1075.89 61.4761C1065.71 63.164 1053.76 58.3551 1034.37 69.3742C1014.95 80.4121 1011.04 86.2646 1016.84 89.6917C1022.65 93.1187 1043.19 96.5525 1041.87 99.3013C1040.54 102.069 1024.81 98.7549 1014.37 102.018C1003.94 105.28 993.878 112.18 989.25 108.833C984.645 105.468 977.472 101.23 974.762 103.133C972.051 105.036 975.359 113.2 970.326 114.618C965.27 116.054 960.769 125.94 954.488 127.748C948.207 129.555 925.579 113.989 925.579 113.989C925.579 113.989 957.029 125.042 962.66 113.565C966.952 104.856 937.851 97.8671 920.393 93.9905C920.637 93.3156 920.87 92.767 920.981 92.4389C921.649 90.9383 918.236 89.6492 916.885 89.5934C915.787 89.5639 910.787 90.0086 906.198 90.7613C904.748 90.4936 903.035 90.3259 901.071 90.1319C901.503 88.9461 902.947 87.2716 902.948 86.4442C902.97 84.9505 894.031 85.5473 894.031 85.5473C894.031 85.5473 890.557 88.1456 887.287 90.1604C883.71 90.4244 879.929 90.8582 876.105 91.5633C873.66 91.298 870.432 91.1528 866.056 91.6095C856.681 92.511 858.585 96.1787 856.458 96.7104C854.331 97.2422 853.088 96.6247 849.08 97.6608C845.078 98.7505 843.103 101.399 844.598 102.043C846.093 102.686 842.853 106.211 841.545 107.359C840.238 108.506 835.417 110.455 833.952 111.321C832.487 112.187 830.124 117.224 828.925 119.285C827.949 120.923 824.328 124.175 821.395 127.975C821.207 128.072 820.997 128.188 820.81 128.286C813.369 131.649 796.728 132.345 795.2 146.307C793.7 160.305 802.539 161.384 807.542 160.346C812.494 159.291 820.832 155.948 820.832 155.948L824.458 173.704C824.458 173.704 813.931 161.754 804.942 169.475C795.931 177.216 801.872 187.85 801.872 187.85C801.872 187.85 783.706 192.472 779.574 189.952C775.442 187.431 784.908 178.486 784.908 178.486C784.908 178.486 773.946 177.345 772.905 180.101C771.892 182.892 777.575 185.065 777.575 185.065C777.575 185.065 775.243 186.594 772.846 186.524C770.449 186.455 760.797 182.511 760.614 179.712C760.454 176.894 755.251 173.318 755.251 173.318C755.251 173.318 759.554 167.846 760.361 166.466C761.168 165.086 762.171 164.31 761.374 163.675C760.577 163.04 752.656 163.616 752.862 162.205C753.068 160.794 757.156 158.748 756.734 157.505C756.313 156.262 747.517 156.799 746.71 158.18C745.903 159.56 743.483 163.7 742.329 164.248C741.203 164.831 740.116 161.959 738.385 163.519C736.653 165.079 739.987 167.792 739.978 168.98C739.947 170.186 738.875 174.148 739.723 174.799C740.52 175.434 746.352 173.824 745.864 176.001C745.376 178.178 743.417 180.34 744.88 182.604C746.344 184.867 750.737 185.813 749.901 187.158C749.094 188.538 744.242 189.805 743.527 192.584C742.811 195.364 740.247 198.503 740.247 198.503L745.08 201.266C745.08 201.266 735.355 206.767 736.548 208.016C737.69 209.249 747.945 207.379 750.369 207.249C752.792 207.119 765.906 207.944 768.322 204.811C770.737 201.678 774.723 190.391 777.578 193.266C780.462 196.177 768.844 209.216 762.144 210.841C755.414 212.432 751.02 211.9 750.167 212.257C749.365 212.63 752.375 215.553 748.972 216.026C745.598 216.534 738.742 218.112 737.935 219.492C737.128 220.872 751.919 225.553 751.772 234.588C751.625 243.623 751.292 249.625 745.823 249.045C740.353 248.465 725.318 247.174 722.523 246.905C719.7 246.6 716.177 247.114 715.514 249.495C714.851 251.877 716.466 258.146 715.044 262.518C713.621 266.889 710.29 273.205 710.102 275.191C709.966 277.193 712.542 276.877 711.696 280.651C710.827 284.444 710.138 287.025 710.138 287.025C710.138 287.025 712.138 286.894 714.862 286.573C717.638 286.267 720.763 286.381 721.317 289.579C721.899 292.812 724.023 292.46 726.533 290.96C729.013 289.426 736.504 290.683 739.713 288.365C742.922 286.047 746.356 284.367 747.433 284.002C748.532 283.618 752.107 278.929 752.665 277.343C753.224 275.757 750.614 272.854 754.738 268.594C758.832 264.299 769.323 260.638 769.534 258.22C769.744 255.802 767.919 251.951 773.079 249.719C778.24 247.488 784.253 253.281 785.334 252.322C786.363 251.347 791.249 249.108 792.657 247.759C794.064 246.409 798.137 241.306 801.374 247.818C804.611 254.33 807.14 262.434 812.155 264.219C817.141 265.969 819.568 266.073 820.626 268.91C821.685 271.747 823.259 271.38 823.902 273.028C824.569 274.657 825.478 277.5 824.698 278.681C823.917 279.862 823.834 281.466 821.729 282.393C819.624 283.32 813.06 282.116 810.533 282.627C808.057 283.155 806.78 283.51 807.224 284.734C807.645 285.976 812.579 288.124 814.392 289.979C816.204 291.833 818.13 292.119 818.13 292.119L819.294 289.556C819.294 289.556 818.335 286.931 819.238 285.943C820.141 284.955 822.028 283.443 822.996 284.053C823.942 284.682 826.03 281.939 826.109 281.343C826.187 280.746 827.944 278.988 828.743 278.795C829.519 278.621 831.001 276.855 829.959 275.834C828.917 274.813 827.732 274.265 828.23 272.376C828.727 270.486 829.386 268.698 831.103 269.747C832.821 270.795 834.05 272.133 834.358 273.056C834.667 273.98 836.569 272.809 836.416 271.52C836.234 270.196 835.675 268.005 833.602 267.312C831.506 266.637 828.408 264.437 828.203 263.132C828.021 261.808 829.881 260.495 826.757 260.382C823.632 260.268 819.818 257.07 819.432 254.027C819.075 251.019 818.675 250.585 817.175 249.06C815.698 247.517 813.681 243.943 815.889 241.574C818.125 239.239 820.504 242.924 823.361 246.447C826.218 249.97 833.343 253.598 834.969 255.136C836.624 256.709 842.472 260.692 842.224 262.375C841.953 264.076 839.114 269.096 840.482 270.554C841.85 272.012 844.664 276.22 845.234 278.932C845.805 281.644 847.125 282.906 847.57 283.302C848.044 283.733 845.7 284.741 846.541 286.166C847.382 287.59 848.589 286.644 848.035 289.112C847.511 291.614 847.621 291.286 849.456 291.647C851.291 292.008 853.369 293.582 853.688 293.966C853.985 294.368 853.02 287.912 853.918 287.931C854.816 287.951 854.595 284.83 855.558 284.559C856.499 284.306 859.026 287.986 859.668 286.684C860.31 285.382 861.308 283.311 860.328 282.18C859.37 281.03 857.863 277.976 857.296 276.973C856.7 275.935 854.848 272.283 855.894 270.822C856.94 269.361 858.207 272.909 860.296 272.055C862.362 271.22 862.69 268.114 863.84 268.159C864.962 268.17 865.462 268.402 868.06 268.482C870.68 268.542 872.77 270.638 872.77 270.638C872.77 270.638 870.355 273.771 870.468 275.979C870.58 278.187 872.764 276.664 872.532 280.162C872.3 283.66 871.769 284.634 872.365 285.672C872.961 286.711 874.12 288.932 874.063 290.337C874.006 291.742 875.039 292.476 876.464 292.529C877.888 292.582 880.351 292.361 880.626 294.257C880.952 296.169 882.02 297.405 884.195 297.069C886.347 296.752 886.876 293.242 888.311 293.169C889.746 293.095 893.113 294.836 895.048 296.884C896.984 298.931 901.327 298.206 902.654 297.219C904.009 296.268 905.235 293.595 906.765 294.327C908.296 295.059 910.396 295.14 911.438 294.272C912.479 293.405 913.468 293.349 912.81 294.723C912.152 296.097 910.739 296.566 910.617 298.261C910.495 299.956 910.267 300.559 910.219 302.251C910.171 303.944 909.856 307.158 907.854 310.419C905.852 313.679 902.65 325.494 898.775 326.183C894.899 326.873 891.868 321.252 886.563 322.896C881.281 324.52 879.475 328.385 875.67 327.777C871.864 327.168 862 323.106 860.587 323.575C859.174 324.043 858.321 322.097 858.439 321.409C858.556 320.721 853.415 321.225 851.702 319.169C849.99 317.113 845.233 311.631 839.561 316.472C833.889 321.314 835.279 322.753 835.156 324.862C835.033 326.971 833.332 331.929 830.679 330.125C828.026 328.321 823.142 323.653 820.495 323.791C817.849 323.929 816.412 321.053 815.916 318.338C815.419 315.624 810.098 313.149 807.409 313.559C804.72 313.968 802.668 314.497 800.563 311.647C798.428 308.761 795.945 305.871 796.464 304.79C797.005 303.69 802.077 304.484 802.623 302.376C803.147 300.287 800.209 300.904 799.717 299.071C799.226 297.237 798.689 297.33 798.119 296.093C797.549 294.856 797.118 293.739 798.312 292.686C799.529 291.614 800.85 289.746 800.541 289.236C800.231 288.727 797.72 291.054 797.241 289.742C796.762 288.429 796.069 286.999 793.917 287.316C791.765 287.633 789.192 290.07 786.551 288.787C783.91 287.504 782.794 288.375 780.193 288.475C777.62 288.61 776.845 290.673 775.123 290.631C773.401 290.59 768.124 288.491 763.321 289.54C758.495 290.608 746.994 293.93 744.36 296.064C741.726 298.198 739.87 299.331 736.955 297.627C734.04 295.923 729.127 299.188 728.186 297.551C727.245 295.915 725.333 293.435 725.333 293.435L722.064 295.036C722.064 295.036 719.124 302.56 711.154 307.544C703.185 312.528 702.274 318.481 700.82 324.059C699.367 329.636 695.709 335.929 688.269 339.292C680.828 342.655 676.161 355.749 671.771 358.814C667.381 361.88 655.221 378.735 657.485 385.644C659.748 392.553 660.927 400.602 655.816 412.472C650.704 424.342 645.596 440.224 662.534 459.643C679.472 479.061 686.044 483.268 686.044 483.268C686.044 483.268 698.56 474.026 705.762 478.298C712.935 482.536 726.274 474.143 732.502 472.734C738.731 471.324 744.786 479.148 745.962 483.186C747.138 487.223 765.321 474.56 761.405 492.518C757.511 510.457 754.19 514.344 755.267 519.231C756.339 524.064 762.724 535.508 765.614 546.44C768.482 557.391 769.619 563.822 767.381 566.571C765.167 569.3 770.193 573.909 767.731 580.209C765.274 586.563 755.375 592.269 754.999 610.702C754.623 629.134 761.564 634.982 761.437 649.843C761.309 664.705 758.706 669.824 764.111 682.025C769.494 694.246 772.002 701.542 770.794 707.506C769.585 713.47 768.615 717.878 772.28 719.607C775.944 721.336 783.966 715.955 795.179 717.536C806.391 719.118 824.689 703.645 831.456 690.631C838.247 677.599 841.311 665.25 845.965 664.207C850.642 663.145 855.927 656.088 857.364 644.503C858.801 632.919 868.541 624.395 877.997 617.465C887.453 610.535 889.951 592.164 889.109 581.711C888.289 571.238 880.698 547.753 900.07 527.077C919.448 506.454 940.705 493.061 948.723 470.034C956.719 447.027 958.881 444.695 952.221 446.877C945.562 449.058 928.042 459.34 924.436 451.601C920.778 443.846 926.161 442.019 921.046 436.245C915.879 430.455 909.137 425.446 908.193 419.798C907.249 414.151 901.801 400.332 902.967 392.751C904.133 385.17 897.059 372.115 896.591 365.244C896.131 358.427 892.956 349.502 898.035 347.634C903.144 345.8 911.133 370.546 912.661 378.185C914.219 385.859 921.611 414.586 922.78 424.649C923.95 434.712 924.629 438.337 931.161 436.97C937.687 435.549 960.658 421.083 971.498 417.013C982.339 412.943 1005.68 394.038 1005.62 386.414C1005.56 378.79 997.243 378.104 994.777 372.425C992.334 366.728 997.713 360.891 991.054 363.072C984.394 365.254 967.498 361.5 966.384 355.049C965.27 348.599 961.717 340.049 964.768 339.751C967.818 339.454 972.315 353.651 982.17 355.951C992.024 358.25 997.799 358.046 1000.97 362.959C1004.14 367.873 1035.77 363.666 1040.01 373.413C1044.26 383.16 1050.68 388.613 1055.25 397.97C1059.85 407.361 1064.03 433.568 1065.2 447.642C1066.37 461.716 1067.82 472.2 1071.93 472.724C1076.05 473.249 1079.84 462.131 1081.33 468.207C1082.82 474.283 1081.71 489.488 1087.43 485.67C1093.12 481.817 1093.55 477.034 1090.22 465.292C1086.88 453.549 1087.61 448.755 1090.01 438.788C1092.41 428.821 1097.51 422.976 1105.85 415.622C1114.18 408.267 1136.02 389.312 1144.98 395.603C1153.97 401.929 1158.98 412.509 1156.59 420.461C1154.2 428.414 1160.47 428.621 1163.05 431.489C1165.61 434.376 1169.22 432.493 1167.29 447.262C1165.36 462.031 1164.99 470.481 1170.52 487.48C1176.08 504.515 1176.73 508.159 1172.65 505.187C1168.59 502.25 1164.75 495.707 1158.87 492.697C1152.99 489.686 1149.03 481.943 1148.8 487.563C1148.58 493.184 1153.15 502.54 1159.69 517.216C1166.21 531.857 1173.97 542.152 1177.69 553.519C1181.4 564.887 1183.19 566.941 1200.97 572.729C1218.76 578.518 1242.89 578.072 1242.89 578.072C1242.89 578.072 1220.86 568.562 1211.94 563.834C1203.01 559.107 1199.47 558.632 1200.38 552.626C1201.28 546.619 1201.28 538.597 1194.41 528.376C1187.52 518.12 1189.95 504.177 1186.42 495.608C1182.92 487.074 1169.2 462.134 1177.59 454.382C1185.98 446.63 1191.67 466.861 1190.81 472.47C1189.98 478.06 1202.86 476.483 1211.43 463.508C1219.99 450.533 1222.89 445.403 1218.54 432.441C1214.19 419.479 1211.43 407.733 1217.21 401.502C1222.99 395.271 1227.51 399 1224.71 405.763C1221.87 412.492 1220.31 418.865 1224.82 417C1229.33 415.136 1232.76 404.427 1235.81 400.119C1238.86 395.81 1260.86 397.731 1274.72 379.695C1288.56 361.678 1298.18 351.953 1296.84 333.066C1295.49 314.178 1292.49 314.078 1295.38 310.963C1298.27 307.847 1302.27 309.186 1302.34 304.759C1302.39 300.35 1292.22 296.012 1299.28 293.024C1306.34 290.035 1311.51 289.8 1311.38 296.64C1311.27 303.461 1319.23 300.491 1316.1 311.242C1312.97 321.993 1316.02 325.706 1322.99 321.498C1329.93 317.309 1333.78 311.801 1331.29 302.49C1328.79 293.18 1323.87 291.841 1327.23 289.517C1330.57 287.211 1336.83 283.822 1337.85 281.031C1338.86 278.24 1342.41 272.743 1349.79 271.792C1357.17 270.842 1371.01 266.873 1382.35 249.582C1393.68 232.291 1396.75 219.942 1399.68 222.455C1402.62 224.967 1397.18 254.872 1392.03 265.126C1386.88 275.379 1385.02 271.728 1381.57 286.466C1378.14 301.185 1364 311.192 1357.52 312.161C1351.07 313.166 1334.03 322.223 1331.08 325.736C1328.14 329.249 1329.08 340.922 1331.64 341.794C1334.21 342.667 1338.08 331.186 1344.6 329.765C1351.13 328.344 1357.95 322.954 1365.4 323.602C1372.84 324.25 1379.73 326.485 1382.35 316.923C1385 307.395 1388.24 299.86 1389.56 295.096C1390.89 290.333 1390.66 277.895 1392.39 276.335C1394.12 274.776 1401.25 277.396 1408.17 273.64C1415.09 269.883 1428.19 258.622 1428.19 258.622C1428.19 258.622 1406.78 266.769 1403.4 263.446C1400 260.142 1396.95 256.429 1399.68 254.093C1402.44 251.792 1402.14 241.713 1405.75 239.829C1409.36 237.945 1409.04 241.932 1410.55 229.931C1412.06 217.93 1410.46 204.628 1407.54 204.165C1404.6 203.667 1386.82 205.9 1385.19 202.654C1383.58 199.388 1378.42 197.609 1378.42 197.609C1378.42 197.609 1395.16 174.462 1422.88 176.161C1450.61 177.861 1461.88 177.03 1464.69 174.278C1467.53 171.56 1483.46 159.65 1487.71 163.371C1491.94 167.11 1499.16 163.342 1501.32 165.022C1503.49 166.701 1497.77 174.529 1486.81 179.413C1475.84 184.297 1465.58 190.359 1465.03 199.967C1464.48 209.575 1464.3 224.834 1467.14 225.714C1470.03 226.61 1477.28 212.372 1485.27 209.438C1493.23 206.469 1493.95 201.674 1495.7 198.154C1497.44 194.579 1502.72 189.537 1502.48 187.136C1502.24 184.735 1499.03 178.204 1509.09 175.316C1519.15 172.427 1531.99 169.234 1534.44 172.916C1536.89 176.599 1547.95 165.326 1557.1 164.433C1566.27 163.522 1577.72 159.482 1580.71 159.582C1583.71 159.683 1583.22 148.82 1587.44 148.963C1591.61 149.089 1608.86 148.01 1617.49 153.684C1626.19 159.662 1631.86 135.467 1622.31 131.555ZM851.991 141.273C853.719 138.005 856.068 135.99 858.539 134.581C861.01 133.173 864.426 132.807 866.194 132.397C867.939 132.006 870.159 131.633 870.767 129.828C871.374 128.024 872.972 128.7 872.946 126.597C872.921 124.493 870.123 124.404 873.333 123.146C876.567 121.87 879.91 118.378 881.174 119.804C882.409 121.195 884.443 124.282 881.419 126.27C878.424 128.292 877.015 130.055 874.135 131.155C871.254 132.256 869.116 131.439 867.805 132.767C866.466 134.059 865.292 136.749 866.62 138.298C867.949 139.848 869.153 142.445 867.447 144.634C865.77 146.857 862.472 149.898 858.844 149.318C855.194 148.758 854.789 149.331 853.104 148.551L852.662 148.388C851.152 146.989 850.264 144.541 851.991 141.273ZM888.861 155.84C884.543 154.478 870.368 158.55 868.62 160.596C866.849 162.661 866.102 165.172 864.96 167.716C863.79 170.225 860.949 172.709 860.36 175.088C859.771 177.467 861.269 176.456 861.527 178.425C861.786 180.393 854.803 184.674 853.227 186.281C851.651 187.889 850.094 183.165 846.667 182.596C843.24 182.026 840.27 182.375 839.346 184.029C838.445 185.665 835.679 185.844 833.067 184.595C830.426 183.312 833.907 182.656 835.075 181.802C836.214 180.913 834.166 180.434 830.76 182.562C827.384 184.725 825.142 182.401 825.968 180.769C827.599 177.522 830.638 180.48 833.637 177.864C836.637 175.249 839.6 177.149 843.462 174.877C847.323 172.606 845.372 168.328 845.871 165.611C846.399 162.929 852.983 161.164 854.89 158.986C856.819 156.789 865.268 155.42 868.741 155.537C872.214 155.655 886.033 153.826 892.769 152.703C899.475 151.545 897.665 151.813 896.968 153.279C896.271 154.744 893.178 157.202 888.861 155.84ZM941.898 264.066C940.609 268.091 933.17 268.738 928.277 269.035C923.385 269.332 917.712 262.842 911.562 263.241C905.413 263.64 900.751 265.457 894.64 267.654C888.559 269.885 882.915 269.095 881.877 265.592C880.817 262.108 880.202 258.606 880.634 257.42C881.959 253.484 885.069 252.015 885.942 249.931C886.814 247.847 893.283 241.752 897.425 240.369C901.566 238.986 908.312 242.988 908.353 245.846C908.371 248.723 910.157 247.414 912.516 246.747C914.876 246.08 922.751 244.067 926.716 247.494C930.733 250.936 934.997 255.412 936.786 256.224C938.552 257.055 943.187 260.042 941.898 264.066ZM992.969 295.963C992.412 296.722 989.255 296.754 984.786 297.053C980.317 297.351 977.702 293.981 976.675 291.826C975.647 289.671 972.166 290.327 972.133 286.695C972.13 283.098 973.203 282.499 973.933 280.888C974.634 279.242 974.317 279.093 976.163 276.611C978.009 274.13 979.356 276.254 980.711 275.716C982.036 275.143 980.858 274.649 979.087 272.937C977.315 271.225 975.343 268.441 972.745 264.171C970.119 259.865 970.187 257.92 971.365 254.637C972.543 251.354 969.784 253.062 970.438 250.392C971.063 247.688 975.251 245.44 979.224 243.902C983.175 242.382 983.557 242.242 985.068 240.924C986.631 239.623 983.753 239.069 984.966 237.763C986.18 236.457 990.896 237.192 992.682 239.659C994.468 242.126 991.304 242.932 990.298 243.474C989.321 244.052 985.93 246.934 984.63 245.834C983.33 244.733 982.809 245.166 982.867 247.125C982.925 249.083 984.193 250.329 984.972 251.864C985.752 253.398 988.766 259.505 991.285 260.182C993.782 260.877 991.225 263.655 990.909 264.98C990.594 266.306 992.213 269.678 991.629 271.464C991.022 273.268 990.882 277.752 991.289 279.714C991.674 281.696 994.515 282.989 994.325 284.328C994.023 285.76 993.999 294.574 992.969 295.963ZM1153.5 74.6316C1154.18 74.6595 1157.92 75.3783 1157.24 72.347C1156.55 69.3157 1154.55 67.7383 1155.12 66.8531C1155.68 65.9679 1158.22 65.7441 1159.35 65.8085C1160.47 65.8191 1153.16 65.0042 1152.26 64.9849C1151.36 64.9657 1152 66.7936 1152.65 66.7867C1153.32 66.8146 1156.86 68.7105 1154.02 69.5395C1151.18 70.3685 1148.77 69.958 1149.26 71.1979C1149.96 72.9155 1152.8 74.6226 1153.5 74.6316ZM545.306 529.171C540.527 523.294 536.065 517.153 528.22 516.898C520.353 516.662 511.523 506.427 509.23 503.674C506.96 500.902 500.529 495.574 498.997 487.701C497.466 479.828 485.057 466.494 482.427 462.782C479.825 459.106 470.019 462.668 460.268 452.432C450.517 442.197 459.871 440.073 447.033 436.953C434.194 433.834 429.783 436.09 422.706 434.961C415.651 433.812 412.466 425.014 406.618 424.808C400.77 424.602 385.398 439.764 382.036 442.682C378.674 445.6 378.221 444.088 373.695 439.712C369.146 435.355 364.227 444.233 356.101 438.251C347.974 432.27 364.452 406.92 365.299 402.733C366.146 398.545 361.692 399.599 353.89 400.547C346.066 401.515 334.256 402.025 334.256 402.025C334.256 402.025 336.238 393.351 338.227 386.205C340.216 379.06 348.247 372.077 345.782 365.985C343.316 359.893 333.108 364.675 327.354 368.405C321.6 372.134 319.633 389.531 306.363 384.881C293.072 380.25 301.503 349.798 303.047 344.144C304.591 338.491 304.31 334.239 310.718 327.84C317.097 321.407 329.713 324.535 336.072 324.434C342.408 324.351 348.974 318.234 354.405 316.603C359.836 314.973 363.308 321.997 367.676 331.757C372.074 341.552 366.349 350.982 366.349 350.982C366.349 350.982 376.099 352.188 381.091 346.024C386.084 339.86 382.517 315.68 385.339 308.844C388.161 302.008 410.583 291.304 412.939 287.454C415.323 283.639 413.526 276.046 420.429 263.333C427.332 250.62 439.473 255.205 440.624 255.251C441.745 255.262 441.47 251.063 439.868 246.79C438.266 242.518 442.382 239.031 446.37 236.773C450.328 234.48 464.768 228.652 464.768 228.652C464.768 228.652 460.4 232.112 459.862 237.223C459.324 242.334 464.913 236.795 471.766 233.095C478.618 229.395 490.164 224.974 490.164 224.974L488.23 219.797C488.23 219.797 481.636 221.688 476.62 220.317C471.656 218.962 471.95 215.353 471.647 208.404C471.323 201.474 448.457 210.954 448.457 210.954C448.457 210.954 456.33 203.689 462.006 200.556C467.681 197.424 488.178 200.481 492.065 200.313C495.952 200.145 501.39 192.489 507.474 192.38C513.581 192.252 515.614 186.31 515.139 182.102C514.635 177.858 506.028 173.694 495.89 163.132C485.752 152.569 481.655 136.504 481.655 136.504C481.655 136.504 476.929 143.863 472.603 147.052C468.301 150.221 463.429 147.963 459.9 140.042C456.372 132.12 447.728 126.392 442.053 125.334C436.349 124.242 422.332 124.405 422.332 124.405C422.332 124.405 422.196 128.295 421.701 134.61C421.206 140.924 414.597 145.838 414.597 145.838C414.597 145.838 424.562 151.586 424.557 159.087C424.528 166.606 408.257 170.004 408.257 170.004C408.257 170.004 409.495 185.676 407.21 185.926C404.925 186.176 399.169 173.323 398.565 166.979C397.939 160.654 382.76 162.553 371.795 157.4C360.831 152.248 345.384 145.398 347.251 136.171C349.111 126.89 367.702 117.251 375.403 114.202C383.105 111.152 391.826 101.175 391.826 101.175C391.826 101.175 388.306 109.477 384.614 112.965C380.922 116.453 382.192 114.155 387.524 117.565C394.793 122.195 397.366 113.678 402.353 115.014C407.317 116.369 414.653 115.69 414.653 115.69C414.653 115.69 399.471 108.56 397.322 104.92C395.167 101.226 403.22 100.304 408.163 98.9617C413.105 97.6198 413.795 94.6254 412.034 92.7868C410.295 90.9294 411.839 89.4669 415 86.539C418.139 83.6299 411.551 79.4955 413.879 78.974C416.206 78.4525 425.697 81.4676 425.23 84.4533C424.763 87.4391 422.257 89.1726 424.67 91.0579C427.084 92.9432 431.82 97.6168 431.051 101.208C430.283 104.799 418.94 114.068 426.764 113.1C434.588 112.133 448.519 117.117 453.081 121.167C457.643 125.218 477.193 130.363 477.782 129.459C478.349 128.574 464.906 117.635 464.906 117.635C464.906 117.635 478.12 122.863 482.617 123.013C487.114 123.163 487.243 117.744 484.484 115.261C481.697 112.742 471.242 105.808 475.689 103.226C480.136 100.644 484.268 109.244 488.953 111.185C493.616 113.146 500.871 104.034 501.395 101.946C501.919 99.8569 491.508 95.6004 483.835 91.1302C480.92 89.4261 479.091 87.6441 477.65 85.7752C476.563 84.3783 479.642 82.6406 478.691 81.1305C477.612 79.3735 472.503 77.8441 470.735 75.9518C467.374 72.3764 452.859 66.8753 441.35 62.5891C438.799 61.6444 439.305 58.9809 437.225 58.2338C433.944 57.0115 428.508 57.761 427.31 57.1058C421.893 54.2392 401.885 55.0836 401.885 55.0836C401.885 55.0836 383.104 53.902 378.586 64.2747C374.069 74.6473 397.296 79.3264 397.296 79.3264C397.296 79.3264 390.171 93.5229 386.126 93.4093C382.081 93.2956 384.364 84.0165 384.364 84.0165C384.364 84.0165 368.608 74.7682 363.714 69.813C358.821 64.8578 363.333 61.9857 368.555 61.5323C373.806 61.1137 378.002 54.3148 378.002 54.3148C378.002 54.3148 362.914 51.1201 356.097 53.02C349.279 54.92 352.541 61.6468 349.474 69.985C346.407 78.3232 337.701 77.724 329.561 83.7938C321.422 89.8636 305.12 82.7229 302.217 81.1262C299.315 79.5295 275.564 87.2093 265.951 85.0623C256.345 82.969 237.687 76.3149 222.664 71.355C207.612 66.3603 197.561 65.7591 190.858 68.2122C184.425 70.6189 162.731 74.46 136.515 69.9683C133.703 68.2962 130.293 66.827 124.482 65.8822C115.095 64.374 116.699 63.6287 109.255 62.9807C101.812 62.3328 94.7504 65.3213 91.6442 62.0058C88.538 58.6903 87.7019 56.2585 82.0218 58.0965C76.3417 59.9345 74.5718 63.4743 69.852 62.919C65.1323 62.3638 56.6207 60.8937 51.1629 63.1369C45.7051 65.38 42.3313 69.6651 37.4319 70.3219C32.5324 70.9787 26.2748 72.3534 30.7101 74.9161C33.9415 76.7698 37.0977 77.1516 36.9796 78.2533C36.7658 78.5494 36.5521 78.8454 36.3674 79.1763C36.1182 79.3837 35.8012 79.6478 35.4098 79.9147C31.3988 82.6056 30.9057 85.7902 28.1297 86.0953C25.3537 86.4003 22.6164 84.7253 22.6164 84.7253C22.6164 84.7253 22.2867 94.7384 22.9005 96.7652C23.5144 98.7919 27.2313 100.123 23.3773 101.621C19.5461 103.1 17.0342 105.841 14.8689 104.162C12.7035 102.483 4.13642 97.3996 6.18734 101.889C8.23827 106.378 20.5682 104.374 18.7065 110.705C16.8221 117.055 12.4681 114.129 15.7048 120.641C18.9415 127.153 15.2673 127.439 21.7601 128.465C28.224 129.457 28.3221 134.687 38.1106 135.802C47.8764 136.936 49.3885 138.982 51.7109 139.468C54.0559 139.935 61.1175 136.946 57.8774 140.471C54.6374 143.995 56.4991 145.632 42.2356 150.427C27.9657 155.169 -0.495826 160.279 0.431417 160.333C1.32964 160.352 45.4458 153.361 51.4005 151.531C57.4068 149.716 58.9028 145.755 67.4636 142.817C76.0244 139.878 83.4091 132.902 82.5141 136.894C81.619 140.885 77.7877 142.364 75.9752 144.287C74.1917 146.244 69.309 152.494 73.9209 149.834C78.5328 147.174 82.808 146.919 85.0322 142.174C87.2565 137.43 79.9565 134.007 92.1528 132.762C104.378 131.553 113.181 124.99 119.546 126.831C125.883 128.636 125.272 130.621 132.167 130.84C139.062 131.059 155.69 142.414 159.831 148.999C160.94 150.791 162.623 152.813 164.455 154.828C166.737 158.535 168.787 161.55 170.588 162.47C171.118 162.737 171.676 163.039 172.241 163.395C173.554 165.017 174.243 166.214 173.729 166.701C171.997 168.261 162.712 161.946 167.069 168.883C171.455 175.854 172.386 179.505 174.846 177.162C177.305 174.819 176.962 169.202 182.858 173.795C183.216 174.087 183.597 174.36 184.029 174.649C184.606 175.526 185.161 176.422 185.699 177.391C186.968 179.698 189.468 182.101 192.324 184.563C185.224 185.341 182.151 181.053 185.317 185.499C188.541 190.015 191.19 190.524 194.593 193.828C197.996 197.132 207.165 202.246 207.713 202.675C207.72 202.729 207.726 202.782 207.732 202.836C207.441 203.315 204.273 204.301 202.804 205.346C201.125 206.508 201.912 213.349 200.632 223.74C199.352 234.132 198.698 234.499 198.225 239.733C197.722 244.933 195.507 261.71 199.936 270.298C204.365 278.886 199.446 277.493 207.536 283.8C215.597 290.072 213.653 289.212 217.214 291.323C217.698 291.628 218.108 291.936 218.479 292.335C219.719 296.496 220.422 301.577 222.384 305.314C223.397 311.966 220.18 315.472 224.014 318.003C224.931 318.598 225.68 319.036 226.267 319.373C226.665 321.049 227.092 322.759 227.61 324.394C227.554 324.558 227.528 324.757 227.473 324.921C226.088 330.028 226.281 328.924 231.46 332.933C231.821 333.458 232.211 334.019 232.618 334.507C234.539 336.861 236.205 339.782 237.603 342.75C234.945 347.619 236.725 347.73 239.277 350.149C240.035 350.876 240.71 351.317 241.227 351.477C242.691 355.216 243.769 357.8 244.697 357.44C246.837 356.602 243.554 347.178 241.49 338.391C239.427 329.603 229.919 308.836 233.928 309.275C237.937 309.714 244.678 329.185 251.686 345.659C258.693 362.134 259.275 369.972 264.407 379.45C269.516 388.948 298.73 401.921 306.466 401.263C314.254 400.62 310.16 406.804 323.624 414.774C337.088 422.744 341.026 430.973 343.578 439.472C346.13 447.971 358.653 456.193 365.528 450.999C372.402 445.806 373.172 451.244 374.402 463.913C375.632 476.582 366.86 483.827 359.283 492.321C351.676 500.781 349.106 519.388 347.835 527.765C346.565 536.141 350.875 535.975 352.514 547.477C354.176 558.96 358.195 583.176 367.549 592.798C376.904 602.419 384.837 609.919 383.517 623.118C382.196 636.317 367.883 677.392 367.446 686.079C367.038 694.8 362.937 707.009 356.802 716.131C350.668 725.253 351.408 724.991 350.21 738.797C349.011 752.602 342.661 764.736 333.843 787.308C325.001 809.898 343.374 827.355 354.784 831.016C366.193 834.676 374.11 828.615 374.11 828.615C365.337 826.831 362.526 812.587 363 803.575C363.473 794.564 376.318 791.658 378.761 786.024C381.203 780.39 371.31 780.07 372.487 775.312C373.664 770.554 381.41 770.183 381.89 766.891C382.393 763.58 386.761 760.12 390.84 756.959C394.943 753.779 386.881 751.698 387.391 748.441C387.894 745.13 389.74 746.426 396.422 748.416C403.132 750.441 405.459 742.365 408.921 737.357C412.384 732.35 423.397 731.205 428.541 727.157C433.685 723.11 441.629 712.245 449.136 707.351C456.643 702.456 458.546 692.904 467.977 681.155C477.409 669.405 472.71 667.77 478.981 656.232C485.252 644.695 503.227 640.764 510.375 638.293C517.523 635.823 520.683 623.866 523.204 617.635C525.724 611.405 531.242 612.181 529.316 610.007C527.391 607.833 528.618 598.253 530.082 588.358C531.597 578.479 540.913 571.842 549.188 561.882C557.463 551.922 555.552 545.251 553.977 537.649C552.397 529.994 550.056 535.013 545.306 529.171Z" fill="#0A1A2F"/>
</svg>
