<svg width="1995" height="451" viewBox="0 0 1995 451" fill="none" xmlns="http://www.w3.org/2000/svg">
<rect x="92" width="6" height="7" fill="white" fill-opacity="0.82"/>
<rect x="128" y="3" width="6" height="7" fill="white"/>
<rect x="144" y="15" width="6" height="7" fill="white"/>
<rect x="144" y="15" width="6" height="7" fill="white"/>
<rect x="162" y="13" width="7" height="8" fill="white"/>
<rect x="119" y="48" width="8" height="6" fill="white"/>
<rect x="131" y="67" width="6" height="6" fill="white"/>
<rect x="113" y="78" width="8" height="10" fill="white"/>
<rect x="88" y="102" width="6" height="6" fill="white" fill-opacity="0.82"/>
<rect x="68" y="85" width="6" height="6" fill="white" fill-opacity="0.6"/>
<rect x="66" y="56" width="6" height="6" fill="white" fill-opacity="0.6"/>
<rect x="69" y="16" width="9" height="10" fill="white" fill-opacity="0.6"/>
<rect x="49" y="44" width="6" height="6" fill="white" fill-opacity="0.6"/>
<rect x="24" y="39" width="6" height="6" fill="white" fill-opacity="0.35"/>
<rect x="25" y="17" width="6" height="6" fill="white" fill-opacity="0.35"/>
<rect y="37" width="10" height="10" fill="white" fill-opacity="0.35"/>
<rect x="17" y="64" width="10" height="10" fill="white" fill-opacity="0.35"/>
<rect x="36" y="79" width="10" height="10" fill="white" fill-opacity="0.35"/>
<rect x="45" y="104" width="9" height="8" fill="white" fill-opacity="0.6"/>
<rect x="79" y="117" width="9" height="8" fill="white" fill-opacity="0.82"/>
<rect x="56" y="124" width="6" height="7" fill="white" fill-opacity="0.6"/>
<rect x="18" y="116" width="6" height="7" fill="white" fill-opacity="0.35"/>
<rect x="9" y="146" width="9" height="10" fill="white" fill-opacity="0.35"/>
<rect x="48" y="151" width="9" height="9" fill="white" fill-opacity="0.6"/>
<rect x="32" y="163" width="6" height="6" fill="white" fill-opacity="0.35"/>
<rect x="19" y="188" width="6" height="6" fill="white" fill-opacity="0.35"/>
<rect x="9" y="219" width="10" height="9" fill="white" fill-opacity="0.35"/>
<rect x="20" y="243" width="6" height="7" fill="white" fill-opacity="0.35"/>
<rect x="33" y="267" width="6" height="7" fill="white" fill-opacity="0.35"/>
<rect x="41" y="294" width="7" height="7" fill="white" fill-opacity="0.6"/>
<rect x="69" y="299" width="7" height="7" fill="white" fill-opacity="0.6"/>
<rect x="49" y="313" width="7" height="7" fill="white" fill-opacity="0.6"/>
<rect x="69" y="317" width="7" height="7" fill="white" fill-opacity="0.6"/>
<rect x="26" y="324" width="7" height="7" fill="white" fill-opacity="0.35"/>
<rect x="22" y="347" width="7" height="7" fill="white" fill-opacity="0.35"/>
<rect x="40" y="369" width="6" height="7" fill="white" fill-opacity="0.6"/>
<rect x="47" y="389" width="7" height="7" fill="white" fill-opacity="0.6"/>
<rect x="77" y="391" width="6" height="6" fill="white" fill-opacity="0.82"/>
<rect x="99" y="392" width="6" height="6" fill="white" fill-opacity="0.82"/>
<rect x="84" y="367" width="7" height="7" fill="white" fill-opacity="0.82"/>
<rect x="56" y="403" width="6" height="7" fill="white" fill-opacity="0.6"/>
<rect x="91" y="413" width="11" height="12" fill="white"/>
<rect x="115" y="388" width="20" height="12" fill="white"/>
<rect x="75" y="419" width="6" height="7" fill="white"/>
<rect x="45" y="425" width="6" height="7" fill="white" fill-opacity="0.6"/>
<rect x="55" y="351" width="11" height="12" fill="white" fill-opacity="0.6"/>
<rect x="82" y="338" width="7" height="7" fill="white" fill-opacity="0.82"/>
<rect x="113" y="339" width="7" height="7" fill="white"/>
<rect x="135" y="324" width="11" height="10" fill="white"/>
<rect x="147" y="352" width="12" height="12" fill="white"/>
<rect x="159" y="311" width="34" height="10" fill="white"/>
<rect x="160" y="296" width="34" height="10" fill="white"/>
<rect x="170" y="269" width="34" height="10" fill="white"/>
<rect x="125" y="339" width="44" height="10" fill="white"/>
<rect x="98" y="364" width="61" height="10" fill="white" fill-opacity="0.82"/>
<rect x="139" y="299" width="7" height="7" fill="white"/>
<rect x="54" y="240" width="6" height="7" fill="white" fill-opacity="0.6"/>
<rect x="72" y="257" width="10" height="12" fill="white" fill-opacity="0.6"/>
<rect x="61" y="269" width="10" height="9" fill="white" fill-opacity="0.6"/>
<rect x="100" y="243" width="6" height="7" fill="white"/>
<rect x="100" y="257" width="8" height="8" fill="white"/>
<rect x="135" y="259" width="7" height="7" fill="white"/>
<rect x="123" y="279" width="24" height="12" fill="white"/>
<path d="M111 215H147H160V229H147V225H111V215Z" fill="white"/>
<rect x="146" y="201" width="70" height="9" fill="white"/>
<rect x="183" y="225" width="24" height="19" fill="white"/>
<rect x="170" y="187" width="31" height="9" fill="white"/>
<rect x="88" y="225" width="36" height="11" fill="white" fill-opacity="0.82"/>
<rect x="115" y="270" width="7" height="7" fill="white"/>
<rect x="160" y="283" width="10" height="10" fill="white"/>
<rect x="88" y="282" width="22" height="12" fill="white" fill-opacity="0.82"/>
<path d="M96 311H119V323H108.5V332.5H96V311Z" fill="white" fill-opacity="0.82"/>
<rect x="2" y="165" width="6" height="6" fill="white" fill-opacity="0.35"/>
<rect x="37" y="173" width="23" height="12" fill="white" fill-opacity="0.6"/>
<path d="M37 201H64.5V212H54V223H37V201Z" fill="white" fill-opacity="0.6"/>
<rect x="87" y="166" width="22" height="11" fill="white" fill-opacity="0.82"/>
<rect x="121" y="168" width="7" height="7" fill="white"/>
<rect x="124" y="188" width="9" height="11" fill="white"/>
<rect x="151" y="188" width="8" height="8" fill="white"/>
<rect x="112" y="191" width="7" height="7" fill="white"/>
<rect x="78" y="187" width="21" height="12" fill="white" fill-opacity="0.82"/>
<rect x="90" y="28" width="19" height="11" fill="white" fill-opacity="0.82"/>
<rect x="74" y="211" width="7" height="8" fill="white" fill-opacity="0.6"/>
<rect x="147" y="151" width="7" height="7" fill="white"/>
<rect x="170" y="138" width="12" height="11" fill="white"/>
<rect x="159" y="150" width="12" height="11" fill="white"/>
<path d="M137 173H193V184L147.5 184.5V187.5H137V173Z" fill="white"/>
<rect x="73" y="138" width="9" height="24" fill="white" fill-opacity="0.6"/>
<rect x="187" y="18" width="7" height="7" fill="white"/>
<rect x="169" y="30" width="7" height="7" fill="white"/>
<rect x="123" y="28" width="24" height="11" fill="white"/>
<rect x="170" y="65" width="34" height="11" fill="white"/>
<rect x="159" y="89" width="45" height="11" fill="white"/>
<rect x="170" y="103" width="35" height="11" fill="white"/>
<rect x="136" y="103" width="23" height="11" fill="white"/>
<rect x="119" y="105" width="6" height="6" fill="white"/>
<rect x="140" y="90" width="6" height="6" fill="white"/>
<rect x="125" y="127" width="57" height="11" fill="white"/>
<rect x="99" y="139" width="36" height="11" fill="white" fill-opacity="0.82"/>
<rect x="113" y="127" width="9" height="11" fill="white"/>
<path d="M86 52H96V63.5H106V75H86V52Z" fill="white" fill-opacity="0.82"/>
<rect x="193" y="79" width="12" height="7" fill="white"/>
<rect x="150" y="65" width="8" height="11" fill="white"/>
<path d="M352 358L400.6 115H448L496.6 358H455.5L445.9 301.9H403.6L393.7 358H352ZM408.1 273.7H441.1L424.6 171.7L408.1 273.7ZM518.338 358V184.6H559.138V202C565.338 196 571.838 191.2 578.638 187.6C585.638 183.8 593.138 181.9 601.138 181.9C608.338 181.9 614.038 183.7 618.238 187.3C622.438 190.7 625.538 195.3 627.538 201.1C629.538 206.9 630.538 213.2 630.538 220V358H589.738V228.1C589.738 222.9 588.938 218.9 587.338 216.1C585.738 213.3 582.638 211.9 578.038 211.9C575.238 211.9 572.138 212.7 568.738 214.3C565.538 215.9 562.338 217.9 559.138 220.3V358H518.338ZM712.928 360.7C700.328 360.7 689.928 358.4 681.728 353.8C673.528 349 667.328 342.1 663.128 333.1C659.128 324.1 657.128 313.2 657.128 300.4V242.2C657.128 229.4 659.128 218.5 663.128 209.5C667.328 200.5 673.528 193.7 681.728 189.1C689.928 184.3 700.328 181.9 712.928 181.9C725.528 181.9 735.928 184.3 744.128 189.1C752.528 193.7 758.728 200.5 762.728 209.5C766.928 218.5 769.028 229.4 769.028 242.2V300.4C769.028 313.2 766.928 324.1 762.728 333.1C758.728 342.1 752.528 349 744.128 353.8C735.928 358.4 725.528 360.7 712.928 360.7ZM713.228 332.5C717.828 332.5 721.228 331.2 723.428 328.6C725.628 326 727.028 322.5 727.628 318.1C728.228 313.5 728.528 308.5 728.528 303.1V239.5C728.528 234.1 728.228 229.2 727.628 224.8C727.028 220.4 725.628 216.9 723.428 214.3C721.228 211.5 717.828 210.1 713.228 210.1C708.628 210.1 705.228 211.5 703.028 214.3C700.828 216.9 699.328 220.4 698.528 224.8C697.928 229.2 697.628 234.1 697.628 239.5V303.1C697.628 308.5 697.928 313.5 698.528 318.1C699.328 322.5 700.828 326 703.028 328.6C705.228 331.2 708.628 332.5 713.228 332.5ZM796.952 358V184.6H837.752V202C843.952 196 850.452 191.2 857.252 187.6C864.252 183.8 871.752 181.9 879.752 181.9C886.952 181.9 892.652 183.7 896.852 187.3C901.052 190.7 904.152 195.3 906.152 201.1C908.152 206.9 909.152 213.2 909.152 220V358H868.352V228.1C868.352 222.9 867.552 218.9 865.952 216.1C864.352 213.3 861.252 211.9 856.652 211.9C853.852 211.9 850.752 212.7 847.352 214.3C844.152 215.9 840.952 217.9 837.752 220.3V358H796.952ZM940.241 405.1V375.7C947.241 375.7 952.941 375.3 957.341 374.5C961.741 373.7 964.941 372.3 966.941 370.3C968.941 368.3 969.941 365.5 969.941 361.9C969.941 359.3 969.241 355.2 967.841 349.6C966.641 344 965.241 337.9 963.641 331.3L925.541 184.6H965.141L987.641 298.9L1007.14 184.6H1046.44L1005.94 364.9C1003.74 375.1 1000.04 383.1 994.841 388.9C989.641 394.7 983.141 398.8 975.341 401.2C967.541 403.8 958.441 405.1 948.041 405.1H940.241ZM1065.31 358V184.6H1104.61V199.6C1110.61 193.2 1117.11 188.6 1124.11 185.8C1131.11 182.8 1138.21 181.3 1145.41 181.3C1152.21 181.3 1158.11 183 1163.11 186.4C1168.31 189.8 1172.11 195.2 1174.51 202.6C1181.11 195 1188.11 189.6 1195.51 186.4C1202.91 183 1210.51 181.3 1218.31 181.3C1224.51 181.3 1230.01 182.9 1234.81 186.1C1239.61 189.1 1243.41 193.7 1246.21 199.9C1249.01 205.9 1250.41 213.5 1250.41 222.7V358H1211.41V226.3C1211.41 219.7 1210.31 215.2 1208.11 212.8C1205.91 210.2 1202.81 208.9 1198.81 208.9C1195.61 208.9 1192.01 209.8 1188.01 211.6C1184.21 213.4 1180.71 215.9 1177.51 219.1C1177.51 219.7 1177.51 220.3 1177.51 220.9C1177.51 221.3 1177.51 221.9 1177.51 222.7V358H1138.81V226.3C1138.81 219.7 1137.61 215.2 1135.21 212.8C1133.01 210.2 1129.91 208.9 1125.91 208.9C1122.71 208.9 1119.21 209.8 1115.41 211.6C1111.61 213.4 1108.01 215.9 1104.61 219.1V358H1065.31ZM1281.84 358V184.6H1322.64V358H1281.84ZM1281.84 157V123.1H1322.64V157H1281.84ZM1405.16 360.1C1394.16 360.1 1385.46 358.3 1379.06 354.7C1372.86 351.1 1368.46 345.9 1365.86 339.1C1363.26 332.3 1361.96 324.2 1361.96 314.8V211.6H1344.56V184.6H1361.96V132.7H1403.06V184.6H1429.46V211.6H1403.06V311.2C1403.06 317.2 1404.36 321.5 1406.96 324.1C1409.56 326.5 1413.46 327.7 1418.66 327.7C1420.86 327.7 1422.96 327.6 1424.96 327.4C1427.16 327.2 1429.26 327 1431.26 326.8V358C1427.86 358.4 1423.86 358.8 1419.26 359.2C1414.86 359.8 1410.16 360.1 1405.16 360.1ZM1455.87 405.1V375.7C1462.87 375.7 1468.57 375.3 1472.97 374.5C1477.37 373.7 1480.57 372.3 1482.57 370.3C1484.57 368.3 1485.57 365.5 1485.57 361.9C1485.57 359.3 1484.87 355.2 1483.47 349.6C1482.27 344 1480.87 337.9 1479.27 331.3L1441.17 184.6H1480.77L1503.27 298.9L1522.77 184.6H1562.07L1521.57 364.9C1519.37 375.1 1515.67 383.1 1510.47 388.9C1505.27 394.7 1498.77 398.8 1490.97 401.2C1483.17 403.8 1474.07 405.1 1463.67 405.1H1455.87Z" fill="url(#paint0_linear_1_726)"/>
<path d="M1612.3 358V115H1683.7C1698.3 115 1710.1 117.7 1719.1 123.1C1728.3 128.5 1735 136.4 1739.2 146.8C1743.6 157 1745.8 169.4 1745.8 184C1745.8 199.8 1743.1 212.6 1737.7 222.4C1732.3 232 1724.7 239 1714.9 243.4C1705.3 247.8 1693.9 250 1680.7 250H1656.7V358H1612.3ZM1656.7 218.8H1673.5C1681.5 218.8 1687.7 217.7 1692.1 215.5C1696.7 213.1 1699.8 209.4 1701.4 204.4C1703.2 199.2 1704.1 192.3 1704.1 183.7C1704.1 174.9 1703.4 167.8 1702 162.4C1700.8 156.8 1698 152.7 1693.6 150.1C1689.4 147.5 1682.7 146.2 1673.5 146.2H1656.7V218.8ZM1768.7 358V184.6H1809.5V211.3C1815.5 201.1 1821.5 193.8 1827.5 189.4C1833.5 184.8 1840.1 182.5 1847.3 182.5C1848.5 182.5 1849.5 182.6 1850.3 182.8C1851.3 182.8 1852.4 182.9 1853.6 183.1V225.4C1851.2 224.4 1848.5 223.6 1845.5 223C1842.7 222.2 1839.8 221.8 1836.8 221.8C1831.4 221.8 1826.5 223.1 1822.1 225.7C1817.7 228.3 1813.5 232.6 1809.5 238.6V358H1768.7ZM1926.06 360.7C1913.46 360.7 1903.06 358.4 1894.86 353.8C1886.66 349 1880.46 342.1 1876.26 333.1C1872.26 324.1 1870.26 313.2 1870.26 300.4V242.2C1870.26 229.4 1872.26 218.5 1876.26 209.5C1880.46 200.5 1886.66 193.7 1894.86 189.1C1903.06 184.3 1913.46 181.9 1926.06 181.9C1938.66 181.9 1949.06 184.3 1957.26 189.1C1965.66 193.7 1971.86 200.5 1975.86 209.5C1980.06 218.5 1982.16 229.4 1982.16 242.2V300.4C1982.16 313.2 1980.06 324.1 1975.86 333.1C1971.86 342.1 1965.66 349 1957.26 353.8C1949.06 358.4 1938.66 360.7 1926.06 360.7ZM1926.36 332.5C1930.96 332.5 1934.36 331.2 1936.56 328.6C1938.76 326 1940.16 322.5 1940.76 318.1C1941.36 313.5 1941.66 308.5 1941.66 303.1V239.5C1941.66 234.1 1941.36 229.2 1940.76 224.8C1940.16 220.4 1938.76 216.9 1936.56 214.3C1934.36 211.5 1930.96 210.1 1926.36 210.1C1921.76 210.1 1918.36 211.5 1916.16 214.3C1913.96 216.9 1912.46 220.4 1911.66 224.8C1911.06 229.2 1910.76 234.1 1910.76 239.5V303.1C1910.76 308.5 1911.06 313.5 1911.66 318.1C1912.46 322.5 1913.96 326 1916.16 328.6C1918.36 331.2 1921.76 332.5 1926.36 332.5Z" fill="white"/>
<path d="M141.722 235.5C152.722 238.5 162.222 238 162.222 238L164.222 248.5C164.222 248.5 163.988 253.707 163.472 257C162.882 260.766 161.222 266.5 161.222 266.5C159.222 266.5 158.223 265.999 157.722 264.5C157.222 263 158.222 253.5 158.222 253.5C158.222 253.5 156.723 256.999 155.722 260.5C154.722 264 152.222 267.5 151.722 268C151.223 268.499 150.722 269 149.222 268.5C147.723 267.999 146.223 267.499 146.222 266.5C146.222 265.5 148.222 260.5 148.222 260.5L145.222 266C145.222 266 142.222 265 141.222 262L140.722 261.5C138.222 261 137.222 259 137.222 259C137.222 259 136.722 255.5 137.222 253.5C137.721 251.5 138.602 249.582 139.472 247.25C141.105 242.872 141.722 235.5 141.722 235.5Z" fill="white"/>
<path d="M252.722 220.5C254.723 217 260.223 215 264.222 215L265.222 216L260.722 219L267.722 229C267.722 229 268.154 231.792 268.722 233.5C269.19 234.911 270.222 237 270.222 237L272.222 236.5C272.222 236.5 271.223 230.5 268.222 220.5L276.222 230L276.722 238.5C275.857 242.527 271.222 247.5 271.222 247.5C271.222 247.5 270.658 247.524 270.222 247.5C269.519 247.461 269.222 246.5 269.222 246.5C269.222 246.5 267.222 249.5 266.722 250C266.222 250.5 265.839 250.5 265.222 250.5C264.348 250.5 263.222 249.5 263.222 249.5C262.722 248.5 263.222 246 263.222 246L261.722 247.5C261.722 247.5 260.588 248.608 259.722 248.5C259.023 248.413 258.642 248.065 258.222 247.5C257.741 246.854 257.722 245.5 257.722 245.5L259.222 241.5L260.722 238.5C260.722 238.5 259.222 235 253.722 230L252.722 225V220.5Z" fill="white"/>
<path fill-rule="evenodd" clip-rule="evenodd" d="M211 18.5689L233.85 10L243.371 26.5519L241.028 30.0673L249.157 42.5911L248.278 44.9347L246.081 45.8868L244.909 44.5685L241.321 44.9347L239.49 46.3995H237.293L236.853 43.9826L238.757 41.8587L229.969 45.8868L227.845 46.3995L233.85 49.0361L241.321 49.4755L243.005 47.5713L244.25 52.0388L233.118 52.4783L229.529 50.1347L226.527 46.9854H224.622H221.546L219.129 45.8868L224.622 50.1347L233.118 54.1628L243.371 53.5036L244.25 55.4811L241.321 57.5V60.7542L242 65.5L239 66.5L233.118 64.5L227.5 63L225.281 58.1909L216.932 51.16L212.831 45.5206L222.645 52.4783L216.932 45.5206L214.222 40.2475L212.099 34.0954L211 18.5689ZM216.712 32.411H224.695L227.405 30.7998L230.188 29.6279L232.385 29.4815L234.509 30.1406V33.2899L235.241 35.3405H229.822L223.45 33.5828L219.422 33.8758L217.371 34.7546L216.712 32.411ZM226.307 23.3293L221.62 26.8448L220.082 28.9687L221.62 28.0898L224.037 26.6983L227.552 25.5997L232.093 25.7462L235.023 28.0898L235.169 31.6053L235.609 33.8757L236.854 35.9996V33.8757L237.293 31.6053L238.831 29.3349L239.637 27.5039L239.417 26.1856L237.733 24.6476L233.924 22.8899L230.409 22.5237L226.307 23.3293Z" fill="white"/>
<path fill-rule="evenodd" clip-rule="evenodd" d="M243 3H225.5C225.5 3 211 4.5 205 7C199 9.5 195.72 12.978 193.5 18.5C191.255 24.0833 191.942 28.1835 192.889 33.834L192.891 33.8488L192.895 33.8699C192.929 34.0778 192.965 34.2878 193 34.5C194 40.5 201 53 201 53L200.5 57.5L223 76L219.5 86L223.5 90.5C228 109 228.5 125 228.5 125C228.5 125 217.5 81.5 200 65.5L179 76H190V79H179V86H190.5V89H163.145L157.5 96L156.856 100H190V103H156.373L154.602 114H179V117H168V127H152.508L148 155L147.667 159.334H157V149.5H167.5V159.334H190V163.334H179.5V172.834H170.025L170.174 184H178V187H170.215L170.342 196.5H187V200.5H170.396L170.523 210H202V215H179V225H170.725L170.993 245H191V248.5H179V255H191V259H179.5V268.5H164.669L161.778 279H190V283H167.5V296H157.098L154.07 307H179V311H152.969L150.216 321H167V325H156V338H145.322C144.223 341.052 142.726 344.805 140.966 349H155V353H144.5V362H135.321C133.574 365.919 131.739 369.966 129.887 374H159.651C168.029 355.762 177.708 337.829 185 333.5L209 290L223 317C225 344.5 237 375 237 375L257.5 427V429.5L262 445H272L283.5 441L282.5 438.5C282.5 438.5 304.5 434 324.5 416L320.5 411L294.5 415L282 409V402L268.5 382.5L265.5 373.5L258.5 341.5L256 306L249 294L236.5 241.5L241 243L238.5 210L249.5 225.5C249.5 225.5 251 221 255.5 217C260 213 267 212.5 267 212.5L240.5 165.5C240.5 165.5 244.5 117 239 93L229.5 83C239.5 109 235.5 138.5 235.5 138.5C235.5 138.5 234 111 228 88.5L228.5 86L223.5 76L228.5 63L241 63.5L240.5 56L229 54L223.5 50.5L220 45L218 33.5L224 25.5L239.5 21.5L243.5 15L243 3ZM168.796 172.834L168.115 184H145.769L146.628 172.834H168H168.796ZM143.769 210L144.5 200.5H167.107L166.527 210H143.769ZM167.931 187L167.351 196.5H156V187H167.931ZM143.385 215H166.221L165 235C165 235 151 238 142 233L143.385 215ZM117.703 400C119.436 396.365 121.364 392.297 123.382 388H132V378H157.836C148.68 398.419 141.5 418 141.5 418L153 437L169.5 438L172.5 444.5H139.5L123 436.5L122.5 440.5L105 434.5L110 416C110 416 110.17 415.652 110.487 415H130V411H120.5V400H117.703Z" fill="white"/>
<path d="M49 446.5C49 446.5 144.672 442.974 206 443C266.156 443.026 360 446.5 360 446.5C360 446.5 266.166 450.466 206 450.5C144.663 450.534 49 446.5 49 446.5Z" fill="#021E36"/>
<defs>
<linearGradient id="paint0_linear_1_726" x1="353.831" y1="214.215" x2="1568.35" y2="215.77" gradientUnits="userSpaceOnUse">
<stop stop-color="#0F89BD"/>
<stop offset="1" stop-color="#09BBF7"/>
</linearGradient>
</defs>
</svg>
