<svg width="23" height="22" viewBox="0 0 23 22" fill="none" xmlns="http://www.w3.org/2000/svg">
<g clip-path="url(#clip0_1336_1061)">
<path d="M22.964 1.07205C22.343 5.20805 21.729 9.34505 21.114 13.4811C20.871 15.1211 20.632 16.7621 20.383 18.4011C20.294 18.9871 19.902 19.2531 19.354 19.0681C16.083 17.9591 12.817 16.8371 9.54998 15.7191C9.50898 15.7051 9.47298 15.6771 9.39098 15.6311C12.572 11.8051 15.745 7.99005 18.917 4.17505C18.907 4.16005 18.896 4.14405 18.885 4.12805C18.801 4.18805 18.711 4.24005 18.633 4.30605C14.694 7.66805 10.754 11.0271 6.82098 14.3961C6.57598 14.6061 6.37598 14.6531 6.06198 14.5431C4.28398 13.9181 2.49798 13.3201 0.712983 12.7171C0.354983 12.5961 0.0349826 12.4431 -0.00201738 12.0141C-0.0390174 11.5851 0.246983 11.3801 0.584983 11.2041C7.64198 7.53005 14.697 3.85305 21.751 0.173051C22.074 0.00405128 22.387 -0.109949 22.714 0.138051C23.037 0.382051 23.018 0.714051 22.964 1.07205ZM8.37298 16.8411C9.69198 17.2901 10.945 17.7171 12.241 18.1581C12.174 18.2781 12.129 18.3831 12.063 18.4721C11.313 19.4951 10.555 20.5131 9.80998 21.5401C9.56898 21.8721 9.28698 22.0921 8.86498 21.9521C8.46098 21.8171 8.37098 21.4771 8.37198 21.0891C8.37498 19.7021 8.37298 18.3151 8.37298 16.8411Z" fill="#FCF7F7"/>
</g>
<defs>
<clipPath id="clip0_1336_1061">
<rect width="23" height="22" fill="white"/>
</clipPath>
</defs>
</svg>
