<svg width="481" height="92" viewBox="0 0 481 92" fill="none" xmlns="http://www.w3.org/2000/svg">
<path d="M109.095 15.0894L126.235 57.3398L119.538 55.9846L135.083 15.0894H148.795L122.01 76.472L95.225 15.0894H109.095ZM176.722 15.0894C181.559 15.0894 185.651 15.9131 188.999 17.5606C192.347 19.155 194.898 21.4403 196.652 24.4164C198.406 27.3394 199.282 30.8204 199.282 34.8594C199.282 37.251 198.91 39.6691 198.166 42.1137C197.476 44.5053 196.333 46.6842 194.739 48.6506C193.197 50.617 191.098 52.2113 188.441 53.4337C185.837 54.6029 182.621 55.1875 178.795 55.1875H170.504V73.7617H158.945V15.0894H176.722ZM178.715 43.9473C180.469 43.9473 181.931 43.655 183.1 43.0704C184.269 42.4326 185.172 41.662 185.81 40.7585C186.501 39.8019 186.979 38.8187 187.245 37.809C187.564 36.7992 187.723 35.9223 187.723 35.1783C187.723 34.5937 187.617 33.8231 187.405 32.8665C187.245 31.8567 186.873 30.847 186.288 29.8372C185.704 28.8274 184.8 27.9771 183.578 27.2862C182.409 26.5953 180.815 26.2499 178.795 26.2499H170.504V43.9473H178.715ZM262.159 76.153L217.677 35.9755L221.105 37.8887L221.344 73.7617H209.625V12.7776H210.104L253.629 52.7959L251.079 51.6799L250.839 15.0894H262.478V76.153H262.159ZM283.248 15.8866L301.902 62.4418L297.039 61.5649L314.497 15.8866H324.542L298.793 76.472L273.124 15.8866H283.248ZM340.361 74.5589C336.482 74.5589 333.16 73.8149 330.397 72.3268C327.633 70.7856 325.507 68.6864 324.019 66.0291C322.531 63.3187 321.787 60.2363 321.787 56.7818C321.787 53.4868 322.611 50.5107 324.258 47.8534C325.959 45.143 328.218 42.9906 331.034 41.3963C333.904 39.8019 337.066 39.0047 340.521 39.0047C344.985 39.0047 348.678 40.3068 351.601 42.9109C354.578 45.515 356.571 49.1555 357.58 53.8323L330.397 63.239L328.483 58.4559L350.246 50.6435L348.572 51.6799C347.934 50.0324 346.925 48.5975 345.543 47.3751C344.161 46.0996 342.274 45.4619 339.883 45.4619C337.97 45.4619 336.242 45.9402 334.701 46.8968C333.213 47.8003 332.017 49.0758 331.114 50.7233C330.264 52.3176 329.838 54.2043 329.838 56.3832C329.838 58.6153 330.29 60.5817 331.194 62.2824C332.15 63.9299 333.426 65.2319 335.02 66.1885C336.668 67.1451 338.501 67.6234 340.521 67.6234C341.956 67.6234 343.311 67.3577 344.586 66.8263C345.915 66.2948 347.164 65.6305 348.333 64.8333L352.08 70.8919C350.326 72.0079 348.413 72.9114 346.34 73.6023C344.321 74.24 342.328 74.5589 340.361 74.5589ZM374.03 40.3599L374.827 49.9261L374.428 48.6506C375.332 46.6311 376.607 44.9039 378.255 43.4689C379.902 42.034 381.603 40.9445 383.357 40.2005C385.163 39.4033 386.678 39.0047 387.9 39.0047L387.502 47.136C384.951 46.9765 382.719 47.4548 380.806 48.5709C378.945 49.6869 377.484 51.175 376.421 53.0351C375.358 54.8952 374.827 56.8881 374.827 59.0139V73.7617H366.696V40.3599H374.03ZM397.213 40.3599H405.423V73.7617H397.213V40.3599ZM396.734 28.4023C396.734 27.1268 397.239 26.0639 398.249 25.2136C399.259 24.3632 400.348 23.9381 401.517 23.9381C402.74 23.9381 403.829 24.3632 404.786 25.2136C405.742 26.0639 406.221 27.1268 406.221 28.4023C406.221 29.6778 405.742 30.7407 404.786 31.591C403.829 32.3882 402.74 32.7868 401.517 32.7868C400.348 32.7868 399.259 32.3882 398.249 31.591C397.239 30.7407 396.734 29.6778 396.734 28.4023ZM421.109 25.6919H429.32V40.4397H438.248V46.8968H429.32V73.7617H421.109V46.8968H415.21V40.4397H421.109V25.6919ZM449.904 89.785L471.986 40.3599H479.479L457.956 89.785H449.904ZM458.354 74.0009L442.171 40.3599H451.419L464.652 69.8555L458.354 74.0009Z" fill="#07044D"/>
<path d="M42.8191 5.03687L5.43677 17.2595C1.21745 63.9734 28.6261 83.8982 42.0626 87.54C75.8857 73.6011 80.6169 35.5516 78.6079 18.2223L42.8191 5.03687Z" stroke="#07044D" stroke-width="8"/>
<path d="M42.073 5.03687V25.38" stroke="#07044D" stroke-width="6"/>
<path d="M42.073 57.0325V87.1707" stroke="#07044D" stroke-width="6"/>
<path d="M42.0611 24.6277L46.9377 37.6693C47.3082 38.6603 48.2354 39.3339 49.2925 39.3801L63.2026 39.9879L52.3063 48.6559C51.4783 49.3146 51.1242 50.4045 51.4069 51.4241L55.1273 64.8413L43.5164 57.1568C42.6341 56.5729 41.4881 56.5729 40.6058 57.1568L28.9949 64.8413L32.7153 51.4241C32.998 50.4045 32.6439 49.3146 31.8159 48.6559L20.9196 39.9879L34.8297 39.3801C35.8869 39.3339 36.814 38.6603 37.1845 37.6693L42.0611 24.6277Z" stroke="#07044D" stroke-width="6"/>
</svg>
