<svg width="518" height="125" viewBox="0 0 518 125" fill="none" xmlns="http://www.w3.org/2000/svg">
<path d="M145.095 39.0894L162.235 81.3398L155.538 79.9846L171.083 39.0894H184.795L158.01 100.472L131.225 39.0894H145.095ZM212.722 39.0894C217.559 39.0894 221.651 39.9131 224.999 41.5606C228.347 43.155 230.898 45.4403 232.652 48.4164C234.406 51.3394 235.282 54.8204 235.282 58.8594C235.282 61.251 234.91 63.6691 234.166 66.1137C233.476 68.5053 232.333 70.6842 230.739 72.6506C229.197 74.617 227.098 76.2113 224.441 77.4337C221.837 78.6029 218.621 79.1875 214.795 79.1875H206.504V97.7617H194.945V39.0894H212.722ZM214.715 67.9473C216.469 67.9473 217.931 67.655 219.1 67.0704C220.269 66.4326 221.172 65.662 221.81 64.7585C222.501 63.8019 222.979 62.8187 223.245 61.809C223.564 60.7992 223.723 59.9223 223.723 59.1783C223.723 58.5937 223.617 57.8231 223.405 56.8665C223.245 55.8567 222.873 54.847 222.288 53.8372C221.704 52.8274 220.8 51.9771 219.578 51.2862C218.409 50.5953 216.815 50.2499 214.795 50.2499H206.504V67.9473H214.715ZM298.159 100.153L253.677 59.9755L257.105 61.8887L257.344 97.7617H245.625V36.7776H246.104L289.629 76.7959L287.079 75.6799L286.839 39.0894H298.478V100.153H298.159ZM319.248 39.8866L337.902 86.4418L333.039 85.5649L350.497 39.8866H360.542L334.793 100.472L309.124 39.8866H319.248ZM376.361 98.5589C372.482 98.5589 369.16 97.8149 366.397 96.3268C363.633 94.7856 361.507 92.6864 360.019 90.0291C358.531 87.3187 357.787 84.2363 357.787 80.7818C357.787 77.4868 358.611 74.5107 360.258 71.8534C361.959 69.143 364.218 66.9906 367.034 65.3963C369.904 63.8019 373.066 63.0047 376.521 63.0047C380.985 63.0047 384.678 64.3068 387.601 66.9109C390.578 69.515 392.571 73.1555 393.58 77.8323L366.397 87.239L364.483 82.4559L386.246 74.6435L384.572 75.6799C383.934 74.0324 382.925 72.5975 381.543 71.3751C380.161 70.0996 378.274 69.4619 375.883 69.4619C373.97 69.4619 372.242 69.9402 370.701 70.8968C369.213 71.8003 368.017 73.0758 367.114 74.7233C366.264 76.3176 365.838 78.2043 365.838 80.3832C365.838 82.6153 366.29 84.5817 367.194 86.2824C368.15 87.9299 369.426 89.2319 371.02 90.1885C372.668 91.1451 374.501 91.6234 376.521 91.6234C377.956 91.6234 379.311 91.3577 380.586 90.8263C381.915 90.2948 383.164 89.6305 384.333 88.8333L388.08 94.8919C386.326 96.0079 384.413 96.9114 382.34 97.6023C380.321 98.24 378.328 98.5589 376.361 98.5589ZM410.03 64.3599L410.827 73.9261L410.428 72.6506C411.332 70.6311 412.607 68.9039 414.255 67.4689C415.902 66.034 417.603 64.9445 419.357 64.2005C421.163 63.4033 422.678 63.0047 423.9 63.0047L423.502 71.136C420.951 70.9765 418.719 71.4548 416.806 72.5709C414.945 73.6869 413.484 75.175 412.421 77.0351C411.358 78.8952 410.827 80.8881 410.827 83.0139V97.7617H402.696V64.3599H410.03ZM433.213 64.3599H441.423V97.7617H433.213V64.3599ZM432.734 52.4023C432.734 51.1268 433.239 50.0639 434.249 49.2136C435.259 48.3632 436.348 47.9381 437.517 47.9381C438.74 47.9381 439.829 48.3632 440.786 49.2136C441.742 50.0639 442.221 51.1268 442.221 52.4023C442.221 53.6778 441.742 54.7407 440.786 55.591C439.829 56.3882 438.74 56.7868 437.517 56.7868C436.348 56.7868 435.259 56.3882 434.249 55.591C433.239 54.7407 432.734 53.6778 432.734 52.4023ZM457.109 49.6919H465.32V64.4397H474.248V70.8968H465.32V97.7617H457.109V70.8968H451.21V64.4397H457.109V49.6919ZM485.904 113.785L507.986 64.3599H515.479L493.956 113.785H485.904ZM494.354 98.0009L478.171 64.3599H487.419L500.652 93.8555L494.354 98.0009Z" fill="white"/>
<path d="M57.1951 2.08398L2.63745 19.9223C-3.52043 88.0988 36.4811 117.178 56.091 122.493C105.454 102.15 112.359 46.6187 109.427 21.3274L57.1951 2.08398Z" stroke="#0D87FC" stroke-width="3.29886"/>
<path d="M57.1951 2.08398L2.63745 19.9223C-3.52043 88.0988 36.4811 117.178 56.091 122.493C105.454 102.15 112.359 46.6187 109.427 21.3274L57.1951 2.08398Z" stroke="white" stroke-width="3.8485"/>
<path d="M56.1062 2.08398V31.7738" stroke="white" stroke-width="3.8485"/>
<path d="M56.1062 77.9688L56.1062 121.954" stroke="white" stroke-width="3.8485"/>
<path d="M56.0888 30.6757L63.2059 49.7092C63.7467 51.1556 65.0998 52.1387 66.6426 52.2061L86.9438 53.0932L71.0412 65.7436C69.8327 66.705 69.3159 68.2956 69.7285 69.7837L75.1582 89.3654L58.2128 78.1503C56.9251 77.2981 55.2526 77.2981 53.9648 78.1503L37.0194 89.3654L42.4491 69.7837C42.8617 68.2956 42.3449 66.705 41.1364 65.7436L25.2338 53.0932L45.535 52.2061C47.0778 52.1387 48.4309 51.1556 48.9717 49.7092L56.0888 30.6757Z" stroke="white" stroke-width="3.8485"/>
</svg>
